<?xml version="1.0" standalone="no"?>
<!DOCTYPE svg PUBLIC "-//W3C//DTD SVG 20010904//EN"
 "http://www.w3.org/TR/2001/REC-SVG-20010904/DTD/svg10.dtd">
<svg version="1.0" xmlns="http://www.w3.org/2000/svg"
 width="400.000000pt" height="400.000000pt" viewBox="0 0 400.000000 400.000000"
 preserveAspectRatio="xMidYMid meet">
<metadata>
Created by potrace 1.11, written by Peter Selinger 2001-2013
</metadata>
<g transform="translate(0.000000,400.000000) scale(0.100000,-0.100000)"
fill="#000000" stroke="none">
<path d="M0 2000 l0 -2000 2000 0 2000 0 0 2000 0 2000 -2000 0 -2000 0 0
-2000z m2190 1646 c196 -24 352 -68 526 -151 518 -245 875 -729 945 -1281 18
-147 6 -422 -24 -559 -147 -654 -677 -1157 -1347 -1277 -154 -27 -430 -29
-573 -4 -480 86 -891 354 -1140 743 -437 683 -322 1557 276 2100 365 331 850
487 1337 429z"/>
<path d="M1865 3519 c-677 -53 -1246 -549 -1384 -1205 -12 -55 -22 -126 -24
-159 l-2 -60 105 0 105 0 8 55 c51 360 218 659 486 870 97 77 129 97 246 154
197 98 349 131 595 130 201 0 299 -17 465 -79 469 -176 784 -579 850 -1086 l6
-46 107 1 107 1 -3 55 c-5 74 -35 217 -67 318 -161 509 -603 905 -1144 1022
-77 17 -310 43 -346 38 -5 0 -55 -4 -110 -9z"/>
<path d="M2525 2675 c-110 -42 -170 -186 -145 -348 23 -151 95 -227 212 -227
69 0 123 31 164 91 92 137 58 395 -60 464 -54 32 -119 39 -171 20z m121 -153
c52 -77 37 -259 -25 -292 -33 -17 -77 6 -95 51 -20 50 -21 177 -2 223 27 64
85 73 122 18z"/>
<path d="M1167 2674 c-4 -4 -7 -133 -7 -286 l0 -278 160 0 160 0 0 55 0 55
-95 0 -95 0 0 60 0 60 95 0 95 0 0 55 0 55 -95 0 -95 0 0 55 0 55 95 0 96 0
-3 58 -3 57 -151 3 c-82 1 -153 -1 -157 -4z"/>
<path d="M1536 2673 c-3 -4 -6 -99 -6 -213 0 -201 1 -207 26 -258 37 -74 78
-97 175 -97 93 0 137 25 174 99 24 49 25 56 25 263 l0 213 -59 0 -60 0 -3
-220 c-3 -246 -6 -254 -73 -254 -67 0 -70 8 -73 254 l-3 218 -58 1 c-32 0 -61
-3 -65 -6z"/>
<path d="M1978 2675 c-5 -5 -8 -134 -8 -287 l0 -278 65 0 65 0 0 98 1 97 62
-97 62 -97 69 -1 c79 0 78 -9 7 115 -28 49 -51 94 -51 100 0 6 14 22 31 34 98
72 84 242 -23 297 -34 18 -267 33 -280 19z m221 -129 c14 -17 17 -61 7 -94 -6
-19 -14 -22 -62 -22 l-54 0 0 65 0 65 49 0 c30 0 53 -5 60 -14z"/>
<path d="M750 1970 l0 -60 65 0 65 0 0 -225 0 -225 55 0 55 0 0 225 0 225 60
0 60 0 0 60 0 60 -180 0 -180 0 0 -60z"/>
<path d="M1150 1818 c0 -186 3 -218 19 -253 56 -122 220 -154 320 -62 54 50
61 84 61 315 l0 212 -59 0 -60 0 -3 -221 c-3 -205 -4 -222 -22 -235 -26 -18
-76 -17 -101 2 -19 14 -20 28 -23 234 l-3 220 -65 0 -64 0 0 -212z"/>
<path d="M1590 1745 l0 -285 60 0 59 0 3 155 3 156 80 -155 80 -156 58 0 57 0
0 285 0 285 -55 0 -55 0 0 -157 c0 -86 -3 -153 -7 -149 -4 3 -42 73 -84 154
l-77 147 -61 3 -61 3 0 -286z"/>
<path d="M2037 2023 c-4 -3 -7 -132 -7 -285 l0 -278 60 0 60 0 0 157 c0 145 1
156 16 135 8 -12 12 -27 8 -34 -4 -6 -3 -8 3 -5 5 3 38 -52 73 -124 l64 -129
58 0 58 0 0 285 0 285 -55 0 -54 0 -3 -157 -3 -158 -68 128 c-37 71 -64 133
-61 139 4 6 3 8 -3 5 -6 -4 -15 5 -21 18 -10 22 -18 25 -65 25 -30 0 -57 -3
-60 -7z"/>
<path d="M2485 2020 c-3 -5 -5 -133 -4 -285 l1 -275 159 0 159 0 0 55 0 55
-95 0 -95 0 0 60 0 60 95 0 95 0 0 60 0 60 -95 0 -95 0 0 50 0 50 95 0 95 0 0
60 0 60 -154 0 c-91 0 -157 -4 -161 -10z"/>
<path d="M2860 1745 l0 -285 144 0 c159 0 152 -3 151 68 l-1 44 -89 1 -90 2
-3 228 -2 227 -55 0 -55 0 0 -285z"/>
<path d="M454 1895 c37 -534 360 -1008 851 -1250 222 -110 433 -158 690 -157
432 0 791 148 1090 447 205 204 331 415 400 668 26 98 55 274 55 345 l0 42
-110 0 -110 0 0 -40 c0 -80 -31 -247 -66 -350 -97 -291 -297 -541 -560 -700
-222 -134 -450 -199 -699 -200 -508 0 -984 295 -1198 742 -71 147 -114 304
-125 456 l-7 87 -109 3 -109 3 7 -96z"/>
</g>
</svg>
