<?xml version="1.0" encoding="UTF-8"?>
<svg width="95px" height="92px" viewBox="0 0 95 92" version="1.1" xmlns="http://www.w3.org/2000/svg" xmlns:xlink="http://www.w3.org/1999/xlink">
    <title>carbon</title>
    <defs>
        <polygon id="path-1" points="9.27726931e-05 0.188181818 94.868746 0.188181818 94.868746 71.1666 9.27726931e-05 71.1666"></polygon>
        <polygon id="path-3" points="0 91.8118182 94.868746 91.8118182 94.868746 0.522727273 0 0.522727273"></polygon>
    </defs>
    <g id="Page-1" stroke="none" stroke-width="1" fill="none" fill-rule="evenodd">
        <g id="goodtogo" transform="translate(-898.000000, -834.000000)">
            <g id="Group" transform="translate(898.000000, 834.000000)">
                <g id="Group-53" transform="translate(-0.000000, 0.000000)">
                    <g id="Group-3" transform="translate(0.000000, 0.334545)">
                        <mask id="mask-2" fill="white">
                            <use xlink:href="#path-1"></use>
                        </mask>
                        <g id="Clip-2"></g>
                        <path d="M13.1902026,13.5066455 C-2.3812265,29.1320091 -4.15619992,53.2705091 7.81506202,70.8456455 L19.9369848,70.8456455 C5.89361275,56.8715773 5.45575459,33.8067591 19.4672159,19.7506227 C33.4802465,5.69553182 56.5564704,6.02903182 70.5961806,20.0146 C80.0663674,29.4372818 83.1690398,42.8070773 79.901059,54.8271909 L79.8618244,54.8136 L74.7503403,51.51885 L79.1252601,71.0876682 L79.3502051,71.1666 L94.8687983,58.43035 L88.8062675,57.8851455 L88.7910968,57.8830545 C93.1770022,42.5629636 89.3163173,25.4148955 77.2132271,13.3676 C68.3817796,4.5816 56.8253582,0.188077273 45.2720756,0.188077273 C33.6534019,0.188077273 22.0383902,4.62864545 13.1902026,13.5066455" id="Fill-1" fill="#FEFEFE" mask="url(#mask-2)"></path>
                    </g>
                    <path d="M12.7539138,78.3224227 L13.0730219,78.3224227 C14.0266843,78.3224227 14.5037771,77.9627864 14.5037771,77.2304455 C14.5037771,76.5545591 14.0402856,76.2069455 13.1133028,76.2069455 L12.7539138,76.2069455 L12.7539138,78.3224227 Z M14.0068054,79.0903091 L16.0689762,81.9287182 L14.8396253,81.9287182 L12.9349161,79.2006045 L12.7539138,79.2006045 L12.7539138,81.9287182 L11.7463692,81.9287182 L11.7463692,75.2639455 L12.9296848,75.2639455 C13.8080168,75.2639455 14.4436174,75.4317409 14.8349171,75.7636727 C15.2680671,76.1321955 15.484119,76.6125818 15.484119,77.2205136 C15.484119,77.6935818 15.3501982,78.0981727 15.0776485,78.4348091 C14.8066682,78.7766727 14.4530337,78.9941273 14.0068054,79.0903091 L14.0068054,79.0903091 Z" id="Fill-4" fill="#FEFEFE"></path>
                    <polygon id="Fill-6" fill="#FEFEFE" points="20.756151 76.2075205 18.0824436 76.2075205 18.0824436 77.810725 20.6776818 77.810725 20.6776818 78.753725 18.0824436 78.753725 18.0824436 80.9842023 20.756151 80.9842023 20.756151 81.9287705 17.0759453 81.9287705 17.0759453 75.2639977 20.756151 75.2639977"></polygon>
                    <path d="M23.0841754,80.9840455 L23.5377274,80.9840455 C23.9891869,80.9840455 24.3663622,80.9396136 24.6645452,80.8455227 C24.9663901,80.73575 25.2337085,80.5768409 25.4811481,80.3651364 C25.9739347,79.9135 26.2218974,79.3254318 26.2218974,78.5993636 C26.2218974,77.8680682 25.9765503,77.2700682 25.4884719,76.8152955 C25.0443362,76.4159318 24.3967037,76.2068409 23.5377274,76.2068409 L23.0841754,76.2068409 L23.0841754,80.9840455 Z M22.0771539,81.9291364 L22.0771539,75.2643636 L23.4791371,75.2643636 C24.1492641,75.2643636 24.6781465,75.3317955 25.0684001,75.4624773 C25.4863794,75.5910682 25.8640778,75.8153182 26.2020185,76.12425 C26.8915013,76.7499545 27.2367658,77.5784773 27.2367658,78.5993636 C27.2367658,79.6207727 26.8794693,80.4508636 26.1606914,81.08075 C25.7992099,81.4053636 25.4215115,81.6238636 25.0275961,81.7472273 C24.6587908,81.8690227 24.1388015,81.9291364 23.462397,81.9291364 L22.0771539,81.9291364 Z" id="Fill-8" fill="#FEFEFE"></path>
                    <path d="M29.5093386,75.2642068 L29.5093386,79.2782295 C29.5093386,79.8506159 29.6035016,80.2661841 29.7923508,80.5291159 C30.0696087,80.9164568 30.4635241,81.1046386 30.9688658,81.1046386 C31.4799619,81.1046386 31.8733542,80.9164568 32.154797,80.5291159 C32.3389381,80.2761159 32.4341474,79.8579341 32.4341474,79.2782295 L32.4341474,75.2642068 L33.4390764,75.2642068 L33.4390764,79.555275 C33.4390764,80.2583432 33.2219782,80.8406614 32.7835969,81.291775 C32.2913335,81.7956841 31.6845049,82.0492068 30.9688658,82.0492068 C30.254796,82.0492068 29.65006,81.7956841 29.1588428,81.291775 C28.7215077,80.8406614 28.5002246,80.2583432 28.5002246,79.555275 L28.5002246,75.2642068 L29.5093386,75.2642068 Z" id="Fill-10" fill="#FEFEFE"></path>
                    <path d="M39.9703822,75.6194523 L39.9703822,76.810225 C39.3891869,76.3219977 38.7865434,76.0820659 38.1655905,76.0820659 C37.4782002,76.0820659 36.8975281,76.3282705 36.4303748,76.815975 C35.9621752,77.3099523 35.7231057,77.9079523 35.7231057,78.615725 C35.7231057,79.3156568 35.9621752,79.9005886 36.4303748,80.3835886 C36.9022363,80.8686795 37.4839546,81.1044295 38.1671599,81.1044295 C38.5218407,81.1044295 38.8247318,81.0484977 39.070602,80.9340205 C39.2081846,80.8796568 39.3520449,80.7965432 39.5016595,80.6993159 C39.6517972,80.599475 39.8055969,80.4823841 39.9703822,80.3469977 L39.9703822,81.5612932 C39.393372,81.8927023 38.7891591,82.0495205 38.1525123,82.0495205 C37.203558,82.0495205 36.3859089,81.720725 35.7152588,81.0542477 C35.0409467,80.3835886 34.7077142,79.5733614 34.7077142,78.6282705 C34.7077142,77.7746568 34.9881108,77.0198386 35.5483809,76.3538841 C36.2420487,75.5410432 37.1329357,75.1343614 38.2362128,75.1343614 C38.8299631,75.1343614 39.4116814,75.2984977 39.9703822,75.6194523" id="Fill-12" fill="#FEFEFE"></path>
                    <mask id="mask-4" fill="white">
                        <use xlink:href="#path-3"></use>
                    </mask>
                    <g id="Clip-15"></g>
                    <polygon id="Fill-14" fill="#FEFEFE" mask="url(#mask-4)" points="41.2376599 81.9296591 42.2446813 81.9296591 42.2446813 75.2648864 41.2376599 75.2648864"></polygon>
                    <polygon id="Fill-16" fill="#FEFEFE" mask="url(#mask-4)" points="43.8473364 81.9289795 43.8473364 74.8162295 48.7134733 79.8976614 48.7134733 75.2642068 49.7210179 75.2642068 49.7210179 82.3346159 44.854881 77.2599795 44.854881 81.9289795"></polygon>
                    <path d="M54.8182206,78.4582273 L57.5730128,78.4582273 L57.5730128,78.6782955 C57.5730128,79.1795909 57.5128531,79.626 57.3967187,80.0081136 C57.2821536,80.3667045 57.0854575,80.6996818 56.8123846,81.0133182 C56.1950936,81.7080227 55.4072627,82.0572045 54.4509847,82.0572045 C53.5187705,82.0572045 52.7194309,81.7200455 52.0519195,81.04625 C51.3854544,80.3698409 51.0553606,79.5580455 51.0553606,78.6103409 C51.0553606,77.6417273 51.3933013,76.8210455 52.0717984,76.1493409 C52.7471567,75.4734545 53.5710833,75.1347273 54.5430552,75.1347273 C55.0635676,75.1347273 55.5516461,75.2408409 56.0015362,75.4525455 C56.4294549,75.6637273 56.8578968,76.0108182 57.2727373,76.4870227 L56.5576213,77.1712727 C56.013045,76.4425909 55.347103,76.0819091 54.5597953,76.0819091 C53.8509568,76.0819091 53.2613915,76.3218409 52.7842988,76.8105909 C52.3035441,77.2862727 52.0676134,77.8858409 52.0676134,78.6040682 C52.0676134,79.3520909 52.3338855,79.9600227 52.8648605,80.4409318 C53.3634015,80.8868182 53.9017003,81.1089773 54.4855111,81.1089773 C54.9819596,81.1089773 55.4260953,80.9453636 55.8194876,80.6076818 C56.2139262,80.2715682 56.4305012,79.8742955 56.4807215,79.4064545 L54.8182206,79.4064545 L54.8182206,78.4582273 Z" id="Fill-17" fill="#FEFEFE" mask="url(#mask-4)"></path>
                    <path d="M66.4899917,75.6194523 L66.4899917,76.810225 C65.9093196,76.3219977 65.3087686,76.0820659 64.6872925,76.0820659 C64.0014717,76.0820659 63.4228921,76.3282705 62.9541693,76.815975 C62.4807385,77.3099523 62.2437615,77.9079523 62.2437615,78.615725 C62.2437615,79.3156568 62.4807385,79.9005886 62.9541693,80.3835886 C63.4276002,80.8686795 64.0067029,81.1044295 64.6904313,81.1044295 C65.0435427,81.1044295 65.3448645,81.0484977 65.5933503,80.9340205 C65.7304098,80.8796568 65.8758394,80.7965432 66.0217921,80.6993159 C66.1698374,80.599475 66.3283452,80.4823841 66.4899917,80.3469977 L66.4899917,81.5612932 C65.915074,81.8927023 65.3129536,82.0495205 64.6799687,82.0495205 C63.7215982,82.0495205 62.9097035,81.720725 62.2348683,81.0542477 C61.5647413,80.3835886 61.2294162,79.5733614 61.2294162,78.6282705 C61.2294162,77.7746568 61.5092897,77.0198386 62.0726986,76.3538841 C62.7627045,75.5410432 63.6567303,75.1343614 64.7558223,75.1343614 C65.3558501,75.1343614 65.9333835,75.2984977 66.4899917,75.6194523" id="Fill-18" fill="#FEFEFE" mask="url(#mask-4)"></path>
                    <path d="M68.4011354,78.5781932 C68.4011354,79.3152386 68.6511906,79.9210795 69.1413615,80.3910114 C69.6351944,80.8687841 70.2038346,81.1045341 70.850944,81.1045341 C71.5508893,81.1045341 72.1404546,80.8687841 72.6217324,80.3805568 C73.1030101,79.8897159 73.343649,79.2990341 73.343649,78.5964886 C73.343649,77.8861023 73.1030101,77.2912386 72.6311487,76.8077159 C72.1577178,76.3278523 71.5723375,76.086875 70.8729153,76.086875 C70.1829095,76.086875 69.5954367,76.3278523 69.1183439,76.8077159 C68.6412511,77.2860114 68.4011354,77.8782614 68.4011354,78.5781932 M67.3857439,78.5661705 C67.3857439,77.6283977 67.7273465,76.8218295 68.4183986,76.1496023 C69.1010807,75.4758068 69.9281461,75.1391705 70.8896554,75.1391705 C71.8380866,75.1391705 72.6525969,75.4758068 73.335279,76.1574432 C74.0158686,76.8364659 74.3579943,77.6545341 74.3579943,78.6043295 C74.3579943,79.5666705 74.0148223,80.3779432 73.3290015,81.0470341 C72.640565,81.7176932 71.8108839,82.049625 70.8368195,82.049625 C69.9757508,82.049625 69.2020444,81.7516705 68.518316,81.1536705 C67.7634423,80.4981705 67.3857439,79.634625 67.3857439,78.5661705" id="Fill-19" fill="#FEFEFE" mask="url(#mask-4)"></path>
                    <path d="M77.0404379,80.9840455 L79.5263423,80.9840455 L79.5263423,81.9291364 L75.0457507,81.9291364 L77.3611154,79.1299318 C77.5891992,78.8481818 77.7770022,78.6077273 77.9328944,78.40125 C78.090879,78.1979091 78.2059672,78.0285455 78.287052,77.8921136 C78.4507911,77.6176818 78.5334453,77.37775 78.5334453,77.1613409 C78.5334453,76.8497955 78.4241116,76.5889545 78.2054441,76.37725 C77.9825915,76.1712955 77.7163193,76.0636136 77.3904106,76.0636136 C76.7181911,76.0636136 76.3284607,76.4608864 76.2327282,77.2575227 L75.2314612,77.2575227 C75.3925846,75.8545227 76.1040387,75.1493636 77.3611154,75.1493636 C77.9700364,75.1493636 78.47904,75.3490455 78.8928343,75.7280227 C79.3061054,76.1179773 79.5153567,76.5941818 79.5153567,77.1691818 C79.5153567,77.5262045 79.4164855,77.88375 79.2234512,78.2313636 C79.1235338,78.4085682 78.9828123,78.6249773 78.7923937,78.8737955 C78.605637,79.1241818 78.3670906,79.4195227 78.0783239,79.7619091 L77.0404379,80.9840455 Z" id="Fill-20" fill="#FEFEFE" mask="url(#mask-4)"></path>
                    <polygon id="Fill-21" fill="#FEFEFE" mask="url(#mask-4)" points="15.1544437 88.5242818 12.977708 84.7392136 14.1364366 84.7392136 15.6603085 87.4019864 17.190458 84.7392136 18.3497098 84.7392136 16.1625114 88.5242818 16.1625114 91.4055545 15.1544437 91.4055545"></polygon>
                    <polygon id="Fill-22" fill="#FEFEFE" mask="url(#mask-4)" points="22.8011108 85.6850364 20.1226953 85.6850364 20.1226953 87.2856273 22.7195029 87.2856273 22.7195029 88.2281045 20.1226953 88.2281045 20.1226953 90.4585818 22.8011108 90.4585818 22.8011108 91.4052409 19.1156738 91.4052409 19.1156738 84.7389 22.8011108 84.7389"></polygon>
                    <path d="M27.6272808,88.8402705 L26.6380457,86.5700659 L25.6032985,88.8402705 L27.6272808,88.8402705 Z M28.0389826,89.7827477 L25.1837498,89.7827477 L24.4403848,91.4047705 L23.3548942,91.4047705 L26.6553089,84.3218159 L29.8390662,91.4047705 L28.7373585,91.4047705 L28.0389826,89.7827477 Z" id="Fill-23" fill="#FEFEFE" mask="url(#mask-4)"></path>
                    <path d="M31.6789598,87.7958614 L32.0012066,87.7958614 C32.9543459,87.7958614 33.4298693,87.4372705 33.4298693,86.7038841 C33.4298693,86.0243386 32.9674241,85.6850886 32.0388719,85.6850886 L31.6789598,85.6850886 L31.6789598,87.7958614 Z M32.930282,88.563225 L34.9982072,91.4052932 L33.7672869,91.4052932 L31.8620546,88.6729977 L31.6789598,88.6729977 L31.6789598,91.4052932 L30.6708921,91.4052932 L30.6708921,84.7389523 L31.8552539,84.7389523 C32.7356784,84.7389523 33.3691865,84.9020432 33.7604862,85.2334523 C34.1936362,85.6045886 34.4096881,86.0870659 34.4096881,86.6908159 C34.4096881,87.1633614 34.2747211,87.5731795 34.0032176,87.9103386 C33.7322373,88.2464523 33.3780796,88.4665205 32.930282,88.563225 L32.930282,88.563225 Z" id="Fill-24" fill="#FEFEFE" mask="url(#mask-4)"></path>
                    <path d="M39.4150295,88.0515795 C39.4150295,88.7881023 39.662469,89.3934205 40.1563019,89.863875 C40.6464729,90.3406023 41.2156362,90.576875 41.8616993,90.576875 C42.5626909,90.576875 43.1533024,90.3390341 43.6345802,89.8497614 C44.115858,89.3620568 44.3559738,88.7692841 44.3559738,88.0693523 C44.3559738,87.3584432 44.1179505,86.7604432 43.6413809,86.2779659 C43.16795,85.8022841 42.5862316,85.5576477 41.8889019,85.5576477 C41.1962804,85.5576477 40.6082845,85.8022841 40.1254373,86.2779659 C39.654099,86.7578295 39.4150295,87.351125 39.4150295,88.0515795 M38.3970223,88.041125 C38.3970223,87.1007386 38.7428099,86.2957386 39.4286308,85.6229886 C40.1165442,84.9507614 40.9368089,84.6109886 41.9025033,84.6109886 C42.849365,84.6109886 43.666491,84.9507614 44.3465574,85.6323977 C45.0297627,86.3088068 45.3687496,87.1237386 45.3687496,88.0803295 C45.3687496,89.0353523 45.0287164,89.8497614 44.3434187,90.519375 C43.6528897,91.1905568 42.8232086,91.5219659 41.848098,91.5219659 C40.9870292,91.5219659 40.2148922,91.2292386 39.5306408,90.6291477 C38.7768133,89.9705114 38.3970223,89.1085341 38.3970223,88.041125" id="Fill-25" fill="#FEFEFE" mask="url(#mask-4)"></path>
                    <polygon id="Fill-26" fill="#FEFEFE" mask="url(#mask-4)" points="46.6336209 91.4049273 46.6336209 84.2822455 51.5018504 89.3725636 51.5018504 84.7391091 52.509395 84.7391091 52.509395 91.8116091 47.6411655 86.7317455 47.6411655 91.4049273"></polygon>
                    <polygon id="Fill-27" fill="#FEFEFE" mask="url(#mask-4)" points="58.1786904 88.5242818 56.007186 84.7392136 57.1617295 84.7392136 58.6850784 87.4019864 60.2120891 84.7392136 61.3708177 84.7392136 59.1851888 88.5242818 59.1851888 91.4055545 58.1786904 91.4055545"></polygon>
                    <polygon id="Fill-28" fill="#FEFEFE" mask="url(#mask-4)" points="65.8202309 85.6850364 63.1470466 85.6850364 63.1470466 87.2856273 65.7401923 87.2856273 65.7401923 88.2281045 63.1470466 88.2281045 63.1470466 90.4585818 65.8202309 90.4585818 65.8202309 91.4052409 62.1368864 91.4052409 62.1368864 84.7389 65.8202309 84.7389"></polygon>
                    <path d="M70.647918,88.8402705 L69.6586829,86.5700659 L68.6223662,88.8402705 L70.647918,88.8402705 Z M71.0617122,89.7827477 L68.2059563,89.7827477 L67.461022,91.4047705 L66.3765776,91.4047705 L69.6780386,84.3218159 L72.8602264,91.4047705 L71.759565,91.4047705 L71.0617122,89.7827477 Z" id="Fill-29" fill="#FEFEFE" mask="url(#mask-4)"></path>
                    <path d="M74.698603,87.7958614 L75.021373,87.7958614 C75.9760816,87.7958614 76.4531744,87.4372705 76.4531744,86.7038841 C76.4531744,86.0243386 75.9860211,85.6850886 75.0600844,85.6850886 L74.698603,85.6850886 L74.698603,87.7958614 Z M75.953064,88.563225 L78.0173272,91.4052932 L76.786407,91.4052932 L74.8837903,88.6729977 L74.698603,88.6729977 L74.698603,91.4052932 L73.6910584,91.4052932 L73.6910584,84.7389523 L74.8769896,84.7389523 C75.7558447,84.7389523 76.3914453,84.9020432 76.7827451,85.2334523 C77.2148488,85.6045886 77.4319469,86.0870659 77.4319469,86.6908159 C77.4319469,87.1633614 77.2964568,87.5731795 77.0249533,87.9103386 C76.7550193,88.2464523 76.3982459,88.4665205 75.953064,88.563225 L75.953064,88.563225 Z" id="Fill-30" fill="#FEFEFE" mask="url(#mask-4)"></path>
                    <path d="M15.8252508,32.1197614 L15.7896781,31.9216477 C22.489902,28.0978977 29.7331327,25.7895341 37.4717658,25.2145341 C38.7670308,25.1152159 40.0722352,25.0634659 41.3622689,25.0634659 C47.903985,25.0634659 54.4959214,26.2829886 61.0753027,28.6044205 L61.1140142,28.7899886 C58.2692439,27.9991023 53.5192413,27.562625 47.7763418,27.562625 C44.7285979,27.562625 41.4062117,27.6854659 37.9436272,27.9442159 C28.1130052,28.6854432 19.7377254,30.3336023 15.8252508,32.1197614" id="Fill-31" fill="#FEFEFE" mask="url(#mask-4)"></path>
                    <path d="M71.3845869,28.8134591 C68.0156423,26.9912318 61.6460354,24.9379591 54.3667088,23.4936636 C48.9209459,22.4178909 43.9847098,21.8794818 40.4222079,21.8794818 C39.1787325,21.8794818 38.1016119,21.9422091 37.2300806,22.0676636 L37.2300806,21.8585727 C40.4813213,20.9375273 43.8021381,20.4566182 47.1794527,20.4566182 C49.5523615,20.4566182 51.9545654,20.6970727 54.3787407,21.1743227 C60.2163265,22.3342545 65.9079595,24.8626864 71.3845869,28.5845045 L71.3845869,28.8134591" id="Fill-32" fill="#FEFEFE" mask="url(#mask-4)"></path>
                    <path d="M15.6453994,37.7375636 L15.6187199,37.4788136 C24.4700462,33.2541318 33.8418849,30.9860182 43.6573363,30.9421091 L43.9534267,30.9421091 C53.7458604,30.9421091 63.4859813,33.1563818 73.049808,37.3277455 L73.0728257,37.5650636 C67.8174814,35.7025864 57.0713853,34.4318364 44.7292256,34.4318364 C44.4728929,34.4318364 44.2155139,34.4318364 43.9602274,34.4339273 C31.4940863,34.4888136 20.7636841,35.8364045 15.6453994,37.7375636" id="Fill-33" fill="#FEFEFE" mask="url(#mask-4)"></path>
                    <path d="M22.5267825,46.1951341 C23.1895857,46.1951341 23.8142006,46.0100886 24.3472681,45.6812932 L24.4126591,45.6467932 L24.4063815,44.0059523 L24.163127,44.2458841 C23.7461939,44.6436795 23.1895857,44.9651568 22.594266,44.9651568 C21.9638967,44.9651568 21.3983953,44.7168614 20.9893092,44.3091341 C20.5802231,43.8961795 20.3270291,43.3295432 20.3270291,42.6996568 C20.3270291,42.0749977 20.5802231,41.5141114 20.9893092,41.0964523 C21.3983953,40.6918614 21.9638967,40.4404295 22.594266,40.4404295 C23.1895857,40.4378159 23.7493327,40.7514523 24.1694045,41.142975 L24.4126591,41.3802932 L24.4126591,39.7404977 L24.3472681,39.6934523 C23.8142006,39.3704068 23.1843544,39.2235205 22.5267825,39.2235205 C20.5985326,39.2235205 19.0406573,40.7854295 19.0406573,42.712725 C19.0406573,44.6316568 20.5985326,46.1951341 22.5267825,46.1951341" id="Fill-34" fill="#FEFEFE" mask="url(#mask-4)"></path>
                    <polygon id="Fill-35" fill="#FEFEFE" mask="url(#mask-4)" points="71.637467 46.3809636 71.637467 39.4009864 70.3238925 39.4009864 70.3238925 43.5875091 65.6790386 38.7010545 65.6690992 46.1065318 66.9648873 46.1065318 66.9648873 41.8719182 71.637467 46.7489636"></polygon>
                    <polygon id="Fill-36" fill="#FEFEFE" mask="url(#mask-4)" points="30.4069216 51.1840432 31.8926053 51.1840432 31.8926053 49.9483159 27.6510832 49.9483159 27.6510832 51.1840432 29.1263042 51.1840432 29.1263042 56.6580432 30.4069216 56.6580432"></polygon>
                    <polygon id="Fill-37" fill="#FEFEFE" mask="url(#mask-4)" points="61.3756828 51.1840432 62.8519501 51.1840432 62.8519501 49.9483159 58.6135668 49.9483159 58.6135668 51.1840432 60.0929729 51.1840432 60.0929729 56.6580432 61.3756828 56.6580432"></polygon>
                    <path d="M54.477455,51.7797432 L55.5509137,51.1320841 L55.478722,51.0087205 C55.180539,50.4394705 54.7651754,50.1341977 54.3921851,49.9904477 C54.0270417,49.8383341 53.705318,49.8331068 53.5886604,49.8331068 L53.5373939,49.8331068 C53.5373939,49.8331068 53.2533354,49.8545386 53.055593,49.8984477 C52.7642107,49.9664023 52.4105761,50.110675 52.1092544,50.3715159 C51.8131639,50.6297432 51.5735712,51.0165614 51.523351,51.5544477 L51.523351,51.5575841 L51.523351,51.5649023 C51.5212584,51.5905159 51.5212584,51.6072432 51.5212584,51.6307659 C51.5212584,51.9674023 51.5924039,52.2413114 51.7163852,52.4843795 C51.9031419,52.8393114 52.2013249,53.0797659 52.5267105,53.2601068 C52.847388,53.4430614 53.1984069,53.5732205 53.51333,53.7091295 C53.9323556,53.9051523 54.1478843,54.0567432 54.2420474,54.1895159 C54.2927908,54.2632205 54.3220859,54.3181068 54.3341179,54.3939023 C54.3492886,54.4639477 54.3545199,54.5475841 54.3545199,54.6448114 C54.3545199,54.842925 54.2922676,55.0776295 54.1515462,55.2553568 C54.0097785,55.4273341 53.8078511,55.555925 53.4944974,55.5658568 L53.4531703,55.5658568 C53.2203783,55.5475614 53.0754718,55.4952886 52.953583,55.4226295 C52.7579331,55.3050159 52.6606313,55.1487205 52.5994253,54.9840614 C52.5444969,54.8272432 52.5329881,54.6678114 52.5335112,54.5846977 L52.5335112,54.5313795 L52.5523438,54.331175 L51.2194136,54.6150159 L51.2314455,54.7357659 C51.2664951,55.1586523 51.3836758,55.5114932 51.5515999,55.7854023 C51.8027013,56.1978341 52.1620903,56.4560614 52.504216,56.613925 C52.847388,56.7644705 53.1732968,56.8167432 53.3877793,56.8167432 L53.4646791,56.8167432 C53.599123,56.8167432 53.8015735,56.7937432 54.0155329,56.7205614 C54.3419648,56.6212432 54.7243714,56.4388114 55.0424332,56.1147205 C55.3678189,55.8010841 55.6100272,55.3463114 55.6518774,54.7357659 L55.6518774,54.7305386 C55.654493,54.7091068 55.654493,54.6965614 55.654493,54.6725159 L55.654493,54.6469023 C55.6518774,54.2182659 55.55196,53.8664705 55.3850821,53.5789705 C55.1376426,53.1529477 54.7447734,52.8884477 54.367075,52.7013114 C53.9883303,52.5152205 53.599123,52.3902886 53.3354665,52.2731977 L53.3302352,52.2700614 L53.3218651,52.2700614 C53.0812262,52.1817205 52.9629993,52.0635841 52.8970852,51.9543341 C52.8280323,51.8497886 52.8133847,51.732175 52.8133847,51.6642205 L52.8133847,51.6616068 L52.8154772,51.6035841 C52.8170466,51.6014932 52.8588968,51.4551295 52.9677075,51.3328114 C53.0812262,51.2052659 53.2538585,51.0792886 53.5771516,51.0719705 L53.5724435,51.0719705 L53.6038312,51.0719705 C53.8946903,51.0719705 54.0903402,51.2052659 54.2253073,51.3479705 C54.2917445,51.4164477 54.3409186,51.4891068 54.3681212,51.5413795 C54.3843382,51.5701295 54.3921851,51.5905159 54.3974164,51.6035841 L54.477455,51.7797432 Z" id="Fill-38" fill="#FEFEFE" mask="url(#mask-4)"></path>
                    <path d="M42.8373331,45.8449591 L40.9833673,43.28255 C40.9833673,43.28255 41.3302012,43.1518682 41.5258511,42.9976636 C41.7073765,42.8439818 41.8936101,42.6505727 42.0427016,42.3865955 C42.1870849,42.1142545 42.2875255,41.7854591 42.2917105,41.3678 L42.2917105,41.3594364 L42.2917105,41.3573455 C42.2639847,40.6265727 41.9527236,40.1435727 41.6022278,39.8660045 L41.6100747,39.8764591 C41.3328168,39.6307773 40.9849367,39.51055 40.6668749,39.4488682 C40.3535212,39.3809136 40.0652776,39.3777773 39.9439119,39.3777773 L39.8670121,39.3777773 L38.5319893,39.3777773 L38.3828979,39.3777773 L38.3828979,46.07705 L39.6881023,46.07705 L39.6875792,43.5925273 L41.4322112,46.0854136 L43.0083959,46.0854136 L42.8373331,45.8449591 L42.8373331,45.8449591 Z M40.8525853,41.9684136 C40.7181414,42.1011864 40.4811644,42.1905727 40.2305861,42.2423227 C40.0328437,42.28205 39.8345781,42.2977318 39.6875792,42.3008682 L39.6881023,42.2898909 C39.6881023,42.2114818 39.6875792,40.5946864 39.6875792,40.5946864 C39.8303931,40.5999136 40.0270893,40.6077545 40.2196004,40.6448682 C40.463378,40.6919136 40.6998319,40.7781636 40.8316602,40.9030955 L40.8311371,40.8973455 C40.9640116,41.0311636 41.0341107,41.1848455 41.0346339,41.4075273 L41.0346339,41.4848909 C41.0341107,41.6965955 40.9749973,41.8513227 40.8525853,41.9741636 L40.8525853,41.9684136 Z" id="Fill-39" fill="#FEFEFE" mask="url(#mask-4)"></path>
                    <path d="M48.510552,46.0884455 C49.0080467,46.0853091 49.5719788,45.9504455 50.0197764,45.6389 C50.2468139,45.4826045 50.4414176,45.2756045 50.5831853,45.0231273 C50.7239067,44.7852864 50.8055147,44.3608318 50.8065609,44.1465136 C50.8112691,43.5176727 50.5716764,43.0806727 50.3038349,42.7989227 C50.136957,42.6243318 49.952816,42.5114227 49.8073864,42.4283091 C49.8073864,42.4283091 50.0354702,42.1904682 50.1468965,41.8350136 C50.2316432,41.5799227 50.2316432,41.3917409 50.2316432,41.3023545 L50.2316432,41.1701045 C50.2253657,40.8554227 50.1667753,40.6390136 50.0621497,40.4361955 C49.9580473,40.2161273 49.810002,40.0514682 49.6509711,39.9234 C49.2968134,39.6306727 48.9117912,39.5057409 48.563911,39.4398773 C48.2228316,39.3808091 47.9157554,39.3860364 47.7310912,39.3776727 L47.7279524,39.3776727 L46.6816964,39.3776727 L46.6816964,46.0884455 L46.8302647,46.0884455 L47.5527045,46.0884455 L48.510552,46.0884455 L48.510552,46.0884455 Z M47.9476662,43.2171045 L48.3588449,43.2171045 C48.3588449,43.2171045 48.3970332,43.2171045 48.4639936,43.2197182 C48.563911,43.2317409 48.7239882,43.2510818 48.8898198,43.3028318 C49.0561745,43.3504 49.2220061,43.4361273 49.3391868,43.5511273 L49.3391868,43.5490364 C49.4736307,43.6865136 49.5447761,43.8490818 49.5447761,44.0785591 C49.5447761,44.3111727 49.4736307,44.4726955 49.3433718,44.5950136 L49.340233,44.5965818 C49.1958497,44.7351045 48.9871216,44.8213545 48.7825786,44.8605591 C48.5837899,44.9049909 48.4116808,44.9049909 48.3651224,44.9049909 L48.3452435,44.9049909 L47.9476662,44.9049909 L47.9476662,43.2171045 Z M49.0169399,41.3629909 C49.0169399,41.6363773 48.9457945,41.8088773 48.82129,41.9322409 L48.8181513,41.9322409 C48.7161413,42.0231955 48.5325234,42.1429 48.1433161,42.1465591 L47.9476662,42.1465591 L47.9476662,40.5606045 L48.0878645,40.5606045 L48.085772,40.5606045 C48.2139384,40.5658318 48.338966,40.5741955 48.449346,40.5919682 C48.6157007,40.6207182 48.7407283,40.6620136 48.8411689,40.7696955 C48.9301007,40.8690136 49.0080467,41.0368091 49.0185093,41.3473091 L49.0169399,41.3629909 Z" id="Fill-40" fill="#FEFEFE" mask="url(#mask-4)"></path>
                    <path d="M58.1184261,46.2216886 C59.0877823,46.2216886 59.9603599,45.8348705 60.5922986,45.2055068 C61.2242372,44.5761432 61.6176295,43.7052795 61.6176295,42.7392795 C61.6176295,40.8193023 60.0513842,39.2573932 58.1184261,39.2573932 C56.2001156,39.2573932 54.6260233,40.8193023 54.6260233,42.7392795 C54.6260233,44.6670977 56.2001156,46.2216886 58.1184261,46.2216886 M58.1184261,40.4957341 C58.7257777,40.4957341 59.2682615,40.7513477 59.6684545,41.1486205 C60.0676012,41.5610523 60.3103326,42.1146205 60.3103326,42.7262114 C60.3103326,43.3503477 60.0676012,43.9028705 59.6684545,44.3163477 C59.2682615,44.7172795 58.7242084,44.965575 58.1184261,44.965575 C57.513167,44.965575 56.9670213,44.7172795 56.5668283,44.3163477 C56.1718667,43.9028705 55.9233809,43.3503477 55.9233809,42.7262114 C55.9233809,42.1146205 56.1718667,41.5610523 56.5668283,41.1486205 C56.9670213,40.7513477 57.513167,40.4957341 58.1184261,40.4957341" id="Fill-41" fill="#FEFEFE" mask="url(#mask-4)"></path>
                    <path d="M39.6265301,56.4204636 L37.7678562,53.8554409 C37.7678562,53.8554409 38.1162595,53.7273727 38.3113863,53.5716 C38.4939579,53.4252364 38.6833303,53.2260773 38.8287599,52.95635 C38.976282,52.6908045 39.0714913,52.3541682 39.0819538,51.9380773 L39.0819538,51.9338955 C39.0510893,51.2026 38.7372125,50.71385 38.3903786,50.4446455 L38.3950867,50.4503955 C38.1204445,50.2094182 37.770995,50.0891909 37.4534563,50.0243727 C37.1395795,49.9558955 36.8581366,49.9485773 36.7278777,49.9485773 L36.6588248,49.9485773 L35.3190939,49.9485773 L35.1689561,49.9485773 L35.1689561,56.6473273 L36.4767762,56.6473273 L36.4736375,54.1664636 L38.220362,56.6494182 L39.7944542,56.6494182 L39.6265301,56.4204636 L39.6265301,56.4204636 Z M37.6412592,52.5418273 C37.5099541,52.68035 37.2625145,52.7718273 37.0161212,52.8162591 C36.8194251,52.8559864 36.6237752,52.8706227 36.4736375,52.8732364 L36.4767762,52.8622591 C36.4767762,52.7869864 36.4725912,51.1644409 36.4725912,51.1644409 C36.6127895,51.1701909 36.8131476,51.1858727 37.0103668,51.2224636 C37.2473438,51.2695091 37.4874596,51.3536682 37.6234729,51.4796455 L37.6229498,51.4759864 C37.7537318,51.6071909 37.8227847,51.7613955 37.8233078,51.9882591 L37.8233078,52.0577818 C37.8227847,52.27785 37.7626249,52.4195091 37.6407361,52.5418273 L37.6412592,52.5418273 Z" id="Fill-42" fill="#FEFEFE" mask="url(#mask-4)"></path>
                    <path d="M45.3058696,55.5659614 C45.5993445,55.5659614 45.80598,55.488075 45.9671035,55.367325 C46.1266575,55.252325 46.234945,55.0887114 46.3144605,54.9151659 C46.4729683,54.5764386 46.4797689,54.1838705 46.4797689,54.1065068 L46.4797689,54.0955295 L46.4797689,54.0903023 L46.4797689,54.085075 L46.4797689,49.9659841 L47.7666639,49.9659841 L47.7666639,54.366825 L47.7666639,54.372575 C47.7551551,54.5816659 47.7038886,54.9554159 47.53021,55.3626205 C47.3554853,55.7672114 47.0473629,56.1979386 46.5430674,56.477075 C46.2087886,56.6736205 45.7955175,56.7964614 45.2634963,56.8037795 L45.2525106,56.8037795 C44.7309519,56.7964614 44.3025101,56.6736205 43.967185,56.477075 C43.6349987,56.293075 43.3812816,56.0416432 43.2086493,55.7703477 C42.8482141,55.2267114 42.7592824,54.6443932 42.7493429,54.372575 L42.7493429,54.366825 L42.7493429,49.9659841 L44.0299604,49.9659841 L44.0299604,54.085075 L44.0299604,54.0903023 L44.0299604,54.0955295 L44.0299604,54.1065068 C44.0299604,54.1660977 44.0330991,54.401325 44.102152,54.654325 C44.1712049,54.9125523 44.3087876,55.1979614 44.5457646,55.367325 C44.7058418,55.488075 44.910908,55.5659614 45.2043828,55.5659614 L45.3058696,55.5659614 Z" id="Fill-43" fill="#FEFEFE" mask="url(#mask-4)"></path>
                    <path d="M30.5474338,43.2481545 C30.5819603,43.1613818 31.2771974,41.5817 31.2771974,41.5817 C31.3258484,41.6893818 31.9682496,43.1613818 32.0116692,43.2481545 L30.5474338,43.2481545 Z M34.5415164,45.8633591 L31.2771974,38.7328364 L27.9009291,46.0771545 L29.3133748,46.0771545 L30.021167,44.5225636 L32.5201497,44.5225636 L33.22428,46.0771545 L34.6356794,46.0771545 L34.5415164,45.8633591 Z" id="Fill-44" fill="#FEFEFE" mask="url(#mask-4)"></path>
                    <path d="M25.7880673,61.4284523 L25.8325332,61.5063386 L25.1195097,61.9276568 L25.0771363,61.8534295 C24.9772188,61.6736114 24.879917,61.5633159 24.8014478,61.5188841 C24.7156548,61.4639977 24.6078904,61.4357705 24.458799,61.4357705 C24.2757041,61.4357705 24.1407371,61.4828159 24.0272183,61.5837023 C23.9152689,61.6783159 23.8598174,61.7907023 23.8598174,61.9313159 C23.8598174,62.1043386 23.9937381,62.2632477 24.3196469,62.3970659 L24.7805227,62.5894295 C25.1639755,62.7488614 25.4553579,62.9396568 25.6426377,63.1701795 C25.8325332,63.4074977 25.9172799,63.700225 25.9172799,64.0305886 C25.9172799,64.4780432 25.7708041,64.8596341 25.4694823,65.1523614 C25.1692068,65.4471795 24.7883696,65.5930205 24.3473727,65.5930205 L24.3437108,65.5930205 C23.9257315,65.5930205 23.568435,65.471225 23.2854228,65.2156114 C23.0154887,64.9610432 22.8439027,64.6014068 22.7743267,64.1565659 L22.767526,64.0812932 L23.6442886,63.8889295 L23.6526587,63.9845886 C23.6850926,64.2428159 23.7410673,64.4242023 23.8080277,64.5067932 C23.9419485,64.6798159 24.1135344,64.7707705 24.3719597,64.7707705 C24.5717946,64.7707705 24.7250711,64.7075205 24.8542837,64.5752705 C24.986112,64.447725 25.0535955,64.2898614 25.0535955,64.0781568 C25.0535955,63.9981795 25.0410405,63.924475 25.0195922,63.8575659 C24.9955283,63.7943159 24.9610019,63.7315886 24.912351,63.6767023 C24.8652694,63.6155432 24.8024941,63.5664068 24.724548,63.5115205 C24.6455557,63.4655205 24.5472076,63.4153386 24.4389201,63.3662023 L23.9895531,63.1748841 C23.3377356,62.9109068 22.9820085,62.4807023 22.9820085,61.9276568 C22.9820085,61.5533841 23.1300537,61.2366114 23.4125429,60.9904068 C23.6981708,60.7358386 24.0481434,60.6161082 24.4661227,60.6161082 C25.0295316,60.6129977 25.4820374,60.8947477 25.7880673,61.4284523" id="Fill-45" fill="#FEFEFE" mask="url(#mask-4)"></path>
                    <polygon id="Fill-46" fill="#FEFEFE" mask="url(#mask-4)" points="29.0439116 65.5156045 29.0439116 61.5277182 27.9803923 61.5277182 27.9803923 60.7049455 30.9779159 60.7049455 30.9779159 61.5277182 29.9102116 61.5277182 29.9102116 65.5156045"></polygon>
                    <path d="M34.2021632,63.5595068 L35.3577531,63.5595068 L34.7959135,62.2636659 L34.2021632,63.5595068 Z M36.2052205,65.5155523 L35.7155726,64.3895977 L33.8317886,64.3895977 L33.3170306,65.5155523 L32.3795852,65.5155523 L34.8110843,60.2976886 L37.1541747,65.5155523 L36.2052205,65.5155523 Z" id="Fill-47" fill="#FEFEFE" mask="url(#mask-4)"></path>
                    <polygon id="Fill-48" fill="#FEFEFE" mask="url(#mask-4)" points="39.3818631 65.5156045 39.2992089 65.5156045 39.2992089 60.2595818 42.6880323 63.8068091 42.6880323 60.7049455 43.5517167 60.7049455 43.5517167 65.9196727 40.1623702 62.3839455 40.1623702 65.5156045"></polygon>
                    <path d="M47.3774043,64.68405 C47.6850036,64.68405 47.9392439,64.6532091 48.1348937,64.5899591 C48.3342055,64.5225273 48.5115459,64.4237318 48.6711,64.2825955 C48.9970087,63.9799364 49.157609,63.5925955 49.1607478,63.1043682 C49.157609,62.6187545 48.9996244,62.2267091 48.6773775,61.9308455 C48.3886108,61.6684364 47.9612152,61.5273 47.3774043,61.5273 L47.1435661,61.5273 L47.1435661,64.68405 L47.3774043,64.68405 Z M46.3578278,65.5157091 L46.2777892,65.5157091 L46.2777892,60.70505 L47.335031,60.70505 C47.8058462,60.70505 48.1819753,60.7520955 48.4639413,60.8456636 C48.769448,60.9313909 49.0456596,61.1012773 49.2894373,61.3255273 C49.7858858,61.7803 50.0369873,62.3809136 50.0354252,63.1043682 C50.0369873,63.8393227 49.774377,64.4472545 49.2617115,64.9015045 C48.9970087,65.1294136 48.7281209,65.2893682 48.4398774,65.37405 C48.1683739,65.4707545 47.8006149,65.5157091 47.3193371,65.5157091 L46.3578278,65.5157091 L46.3578278,65.5157091 Z" id="Fill-49" fill="#FEFEFE" mask="url(#mask-4)"></path>
                    <path d="M53.5451362,63.5595068 L54.700726,63.5595068 L54.1305165,62.2636659 L53.5451362,63.5595068 Z M55.5476703,65.5155523 L55.0554068,64.3895977 L53.1705765,64.3895977 L52.6552954,65.5155523 L51.7183731,65.5155523 L54.1472566,60.2919386 L56.4940089,65.5155523 L55.5476703,65.5155523 Z" id="Fill-50" fill="#FEFEFE" mask="url(#mask-4)"></path>
                    <path d="M59.6336664,62.8361568 C60.2849608,62.8225659 60.5418167,62.6213159 60.5475711,62.1566114 C60.5433861,61.7311114 60.2943772,61.5424068 59.660346,61.5272477 L59.4997457,61.5272477 L59.4997457,62.8361568 L59.6336664,62.8361568 Z M60.8237827,65.5151341 L59.4997457,63.6092705 L59.4997457,65.5151341 L58.6339688,65.5151341 L58.6339688,60.704475 L59.5347952,60.704475 C60.1615026,60.704475 60.6197628,60.8215659 60.9142839,61.072475 C61.2360076,61.3422023 61.3971311,61.7102023 61.3971311,62.1430205 C61.3971311,62.4937705 61.2993061,62.7990432 61.0942399,63.0499523 C60.9179458,63.2684523 60.6961395,63.4205659 60.4241129,63.4994977 L61.8867789,65.5151341 L60.8237827,65.5151341 Z" id="Fill-51" fill="#FEFEFE" mask="url(#mask-4)"></path>
                    <path d="M65.214344,64.68405 C65.5276977,64.68405 65.7772298,64.6532091 65.9723565,64.5899591 C66.1700989,64.5225273 66.3479625,64.4237318 66.5090859,64.2825955 C66.8381334,63.9799364 67.0018725,63.5925955 67.0018725,63.1043682 C67.0018725,62.6187545 66.8397028,62.2267091 66.5164097,61.9308455 C66.227643,61.6684364 65.8002474,61.5273 65.214344,61.5273 L64.9836445,61.5273 L64.9836445,64.68405 L65.214344,64.68405 Z M64.1963369,65.5157091 L64.1142058,65.5157091 L64.1142058,60.70505 L65.1719706,60.70505 C65.6448784,60.70505 66.0210074,60.7520955 66.3019272,60.8456636 C66.6069108,60.9313909 66.8825993,61.1012773 67.126377,61.3255273 C67.6186405,61.7803 67.8723576,62.3809136 67.8718352,63.1043682 C67.8723576,63.8393227 67.6118398,64.4472545 67.0955124,64.9015045 C66.8381334,65.1294136 66.5661068,65.2893682 66.2789096,65.37405 C66.0084524,65.4707545 65.6375546,65.5157091 65.1583693,65.5157091 L64.1963369,65.5157091 L64.1963369,65.5157091 Z" id="Fill-52" fill="#FEFEFE" mask="url(#mask-4)"></path>
                </g>
            </g>
        </g>
    </g>
</svg>