<?xml version="1.0" encoding="utf-8"?>
<!-- Generator: Adobe Illustrator 24.3.0, SVG Export Plug-In . SVG Version: 6.00 Build 0)  -->
<svg version="1.1" id="Layer_1" xmlns="http://www.w3.org/2000/svg" xmlns:xlink="http://www.w3.org/1999/xlink" x="0px" y="0px"
	 viewBox="0 0 159.6 171.8" style="enable-background:new 0 0 159.6 171.8;" xml:space="preserve">
<style type="text/css">
	.st0{fill:#FFFFFF;}
</style>
<g id="Layer_2_1_">
	<g id="Artwork">
		<path class="st0" d="M24.2,71.5l-0.1,3.7L7.7,77.9L24,81.4l-0.1,3.8L0,88.4l0.1-3.9l17-1.6L0.2,79.5L0.3,76l17.1-2.7l-17-2.4
			l0.1-3.7L24.2,71.5z"/>
		<path class="st0" d="M25.2,67.2L2.6,59.8l3.2-9.9L9.1,51l-2,6.2l6.2,2L15,54l3.3,1l-1.7,5.2l6.5,2.1l2-6.3l3.3,1.1L25.2,67.2z"/>
		<path class="st0" d="M13.2,42.7c1.8,1,3.1,2.6,3.8,4.5l-1.3,1c-0.6-1.2-1.5-2.3-2.6-3.2l-0.8,1.6l-3.9-2l1.8-3.4L13.2,42.7z"/>
		<path class="st0" d="M37.7,42.9l-9.3-3.5L27.2,41l7.5,5.8l-2.4,3.1L13.5,35.3l3.8-4.8c2.2-2.8,4.8-3.8,7.6-1.6l3.4,2.6
			c1.6,1,2.3,2.9,1.9,4.8l10,3.5L37.7,42.9z M24.5,38.9l1.3-1.6c0.8-0.7,0.8-1.9,0.1-2.7c-0.1-0.2-0.3-0.3-0.5-0.4L23,32.3
			c-0.7-0.8-1.9-0.8-2.7-0.1c-0.1,0.1-0.3,0.3-0.3,0.4l-1.4,1.6L24.5,38.9z"/>
		<path class="st0" d="M41.4,38.9L26.6,20.2l8.2-6.5l2.2,2.7l-5.1,4l4,5.1l4.3-3.4l2.1,2.8L38,28.4l4.3,5.4l5.2-4.1l2.1,2.7
			L41.4,38.9z"/>
		<path class="st0" d="M65.6,20.5c1.2,3.5-0.6,5.5-4,6.7l-0.2,0.1c-3.4,1.2-6.1,0.7-7.3-2.8L49.4,11c-1.2-3.3,0.6-5.5,4-6.7l0.2-0.1
			C57.1,3,59.8,3.7,61,7l1.1,3.2l-3.8,1.3l-0.9-2.6c-0.2-1-1.1-1.7-2.1-1.6c-0.2,0-0.4,0.1-0.6,0.2c-1,0.2-1.7,1.1-1.6,2.1
			c0,0.2,0.1,0.4,0.2,0.6l4.3,12.4c0.2,1,1.1,1.7,2.1,1.6c0.2,0,0.4-0.1,0.6-0.2c1-0.2,1.7-1.1,1.6-2.1c0-0.2-0.1-0.4-0.2-0.6
			l-1.2-3.4l-2.2,0.8l-1.1-3.1l5.9-2L65.6,20.5z"/>
		<path class="st0" d="M73.2,0.1h0.3C77-0.3,79.5,1,79.8,4.6L81,18.8c0.3,3.6-2,5.2-5.6,5.5h-0.3c-3.6,0.3-6.1-0.9-6.4-4.5L67.6,5.6
			C67.3,1.9,69.6,0.4,73.2,0.1z M75,20.9c1,0.1,2-0.7,2.1-1.7c0-0.2,0-0.4-0.1-0.6l-1.1-13c-0.1-1.7-1.1-2.1-2.3-2s-2.1,0.7-2,2.3
			l1.1,13c-0.1,1,0.7,2,1.7,2.1C74.6,20.9,74.8,20.9,75,20.9z"/>
		<path class="st0" d="M93.4,1L93.7,1c3.6,0.6,5.7,2.4,5,6l-2.4,14c-0.6,3.6-3.3,4.5-6.8,3.9h-0.3c-3.6-0.6-5.7-2.4-5-6l2.5-14.1
			C87.3,1.3,89.9,0.3,93.4,1z M90,21.5c1,0.3,2.1-0.2,2.4-1.2c0.1-0.2,0.1-0.4,0.1-0.6l2.2-12.9c0.4-1-0.2-2.1-1.1-2.4
			c-0.2-0.1-0.4-0.1-0.6-0.1c-1-0.4-2.1,0.2-2.4,1.1c-0.1,0.2-0.1,0.4-0.1,0.6L88.2,19c-0.4,1,0.1,2.1,1.1,2.4
			C89.5,21.5,89.8,21.6,90,21.5z"/>
		<path class="st0" d="M116.3,14.4l-5.7,12.5c-1.5,3.3-4.3,3.6-7.5,2.1l-5.5-2.5l9.9-21.6l5.6,2.5C116.3,8.8,117.8,11.1,116.3,14.4z
			 M111.4,10.4l-1.8-0.8l-7,15.3l1.8,0.8c0.9,0.6,2,0.4,2.6-0.5c0.1-0.2,0.2-0.4,0.3-0.6l5.2-11.4c0.6-0.9,0.3-2-0.6-2.6
			C111.8,10.6,111.6,10.5,111.4,10.4L111.4,10.4z"/>
		<path class="st0" d="M136.2,28.3l-2.9-2.7l-13.9,14.8l-2.9-2.7l13.9-14.8l-2.9-2.7l2.4-2.5l8.7,8.1L136.2,28.3z"/>
		<path class="st0" d="M146.2,35.4l0.1,0.2c2,3,2.1,5.8-0.9,7.8l-11.9,7.9c-3,2-5.5,0.8-7.5-2.2l-0.2-0.2c-2-3-2.1-5.8,0.9-7.8
			l11.9-7.9C141.8,31.1,144.2,32.4,146.2,35.4z M128.9,47c0.4,0.9,1.5,1.4,2.5,1c0.2-0.1,0.4-0.2,0.5-0.3l10.9-7.2
			c1-0.4,1.4-1.6,0.9-2.5c-0.1-0.2-0.2-0.4-0.3-0.5c-0.4-1-1.6-1.4-2.5-0.9c-0.2,0.1-0.4,0.2-0.5,0.3L129.5,44
			c-0.9,0.4-1.4,1.5-1,2.5C128.7,46.7,128.8,46.8,128.9,47z"/>
		<path class="st0" d="M140.1,71.4c-3.6,0.9-5.4-1.1-6.3-4.6l-0.1-0.3c-0.9-3.5-0.1-6.1,3.5-7l13.9-3.4c3.4-0.8,5.4,1.1,6.3,4.6
			l0.1,0.3c0.9,3.5,0,6.2-3.5,7l-3.3,0.8l-0.9-3.8l2.7-0.7c1-0.1,1.8-1,1.8-2c0-0.2-0.1-0.4-0.2-0.6c-0.1-1-1-1.8-2-1.8
			c-0.2,0-0.4,0.1-0.6,0.2l-12.7,3.1c-1.2,0.2-2,1.3-1.8,2.5c0.2,1.2,1.3,2,2.5,1.8c0.1,0,0.2,0,0.3-0.1l3.4-0.8l-0.5-2.2l3.2-0.8
			l1.5,6.1L140.1,71.4z"/>
		<path class="st0" d="M159.6,80.8v0.3c-0.1,3.6-1.5,6-5.1,5.9l-14.3-0.2c-3.6-0.1-5-2.5-4.9-6.1v-0.3c0.1-3.6,1.5-6,5.1-5.9
			l14.3,0.2C158.3,74.8,159.7,77.2,159.6,80.8z M138.7,80.6c0,1.3,0.4,2.2,2.1,2.2l13.1,0.2c1.7,0,2.2-0.8,2.2-2.1s-0.4-2.2-2.1-2.2
			l-13-0.2C139.2,78.5,138.8,79.3,138.7,80.6L138.7,80.6z"/>
		<path class="st0" d="M131.9,99.3c-10.6,28.8-42.6,43.6-71.4,33c-15.5-5.7-27.7-18-33.2-33.6l-22.6,8c10.7,30.2,38.4,51,70.4,52.9
			c1.6,0.1,3.2,0.1,4.8,0.1c15.7,0,31-4.6,44-13.3c14.1-9.4,24.8-23,30.7-38.9L131.9,99.3z"/>
		<polygon class="st0" points="117.9,51.7 105.2,42.3 68.2,92.6 59.1,85.8 41.5,92.5 71.5,114.6 71.5,114.6 71.6,114.7 		"/>
		<path class="st0" d="M4.5,131.6l-0.2-0.3l2.9-1.9l0.2,0.3L4.5,131.6z"/>
		<path class="st0" d="M6.2,133.9L6,133.6l1.2-0.9c0.5-0.3,0.6-0.6,0.3-1s-0.6-0.4-1,0l-1.3,0.9L5,132.3l2.1-1.5l0.2,0.3l-0.3,0.2
			c0.3,0,0.6,0.1,0.7,0.4c0.3,0.4,0.3,0.9-0.3,1.4L6.2,133.9z"/>
		<path class="st0" d="M10.9,136.1c-0.4,0.4-1.1,0.3-1.5-0.1c0,0-0.1-0.1-0.1-0.1l-0.5-0.7L7.7,136l-0.2-0.3l2.8-2.1l0.8,1
			c0.4,0.4,0.4,1,0,1.4C11,136,11,136.1,10.9,136.1z M10.6,135.8c0.3-0.2,0.4-0.6,0.2-0.9c0,0,0-0.1-0.1-0.1l-0.6-0.7l-1.1,0.9
			l0.5,0.7C9.9,136,10.3,136.1,10.6,135.8z"/>
		<path class="st0" d="M10.5,139.4l-0.2-0.3l0.2-0.2c-0.3,0-0.6-0.1-0.8-0.4c-0.3-0.3-0.3-0.8,0-1.1c0,0,0.1-0.1,0.1-0.1
			c0.4-0.3,0.9-0.2,1.2,0.2c0,0,0,0.1,0.1,0.1c0.1,0.2,0.2,0.4,0.3,0.6l0.2-0.2c0.2-0.1,0.3-0.4,0.2-0.7c0,0-0.1-0.1-0.1-0.1
			c-0.2-0.2-0.4-0.3-0.6-0.4l0.1-0.3c0.3,0.1,0.6,0.3,0.8,0.5c0.3,0.3,0.4,0.8,0.1,1.1c0,0.1-0.1,0.1-0.2,0.2L10.5,139.4z
			 M10.7,138.7l0.4-0.3c0-0.2-0.2-0.4-0.3-0.6c-0.1-0.3-0.5-0.3-0.7-0.2c0,0-0.1,0-0.1,0.1c-0.2,0.1-0.3,0.5-0.2,0.7
			c0,0,0,0.1,0.1,0.1C10.1,138.6,10.4,138.7,10.7,138.7z"/>
		<path class="st0" d="M13.9,139.4l-0.4,0.2c0-0.1-0.1-0.3-0.2-0.4c-0.2-0.3-0.6-0.2-1,0.1l-1.2,1L11,140l2-1.7l0.2,0.3l-0.2,0.2
			c0.3-0.1,0.5,0,0.7,0.2C13.8,139.1,13.9,139.3,13.9,139.4z"/>
		<path class="st0" d="M14.8,140.9l-0.4-0.5l-1.3,1.1c-0.2,0.2-0.2,0.3,0,0.4c0.1,0.1,0.2,0.2,0.3,0.2l-0.3,0.2
			c-0.1-0.1-0.3-0.2-0.4-0.3c-0.2-0.2-0.2-0.5,0.1-0.8l1.3-1.2l-0.2-0.2l0.2-0.2l0.2,0.2l0.6-0.5l0.4,0.1l-0.8,0.7l0.4,0.5
			L14.8,140.9z"/>
		<path class="st0" d="M15,144.4l-0.3-0.3l1.1-1.1c0.4-0.4,0.4-0.7,0.2-1s-0.6-0.3-1,0.1l-1.1,1.1l-0.2-0.3l1.9-1.8l0.3,0.3
			l-0.2,0.2c0.3-0.1,0.6,0,0.8,0.3c0.4,0.4,0.4,0.9-0.1,1.4L15,144.4z"/>
		<path class="st0" d="M18,145.4c0,0.1-0.1,0.1-0.1,0.1l-1.2-1.2c-0.4,0.4-0.4,0.9-0.1,1.2c0.2,0.2,0.4,0.3,0.7,0.3l-0.1,0.3
			c-0.3,0-0.6-0.2-0.9-0.4c-0.3-0.3-0.5-1,0.2-1.7c0.4-0.5,1.1-0.7,1.6-0.3c0,0,0.1,0,0.1,0.1c0.4,0.4,0.4,1.1,0,1.6
			C18.1,145.4,18,145.4,18,145.4z M17.8,145.1c0.3-0.4,0.4-0.8,0.1-1.1s-0.7-0.3-1.1,0.1L17.8,145.1z"/>
		<path class="st0" d="M20.4,146l-0.3,0.2c0-0.1-0.1-0.3-0.2-0.3c-0.3-0.2-0.6-0.2-1,0.2l-1,1.1l-0.3-0.3l1.8-1.9l0.3,0.3l-0.2,0.2
			c0.3-0.1,0.5,0,0.7,0.2C20.2,145.8,20.3,145.9,20.4,146z"/>
		<path class="st0" d="M20.6,148.8c-0.3,0.3-0.8,0.3-1.1,0c0,0,0,0-0.1-0.1c-0.2-0.2-0.4-0.5-0.5-0.9l0.4-0.1c0,0.3,0.1,0.5,0.3,0.7
			c0.3,0.2,0.5,0.2,0.7,0s0.1-0.4-0.1-0.8s-0.3-0.8,0-1.1c0.3-0.3,0.7-0.3,1,0c0,0,0,0,0,0c0.2,0.2,0.4,0.5,0.4,0.8l-0.3,0.1
			c0-0.2-0.2-0.5-0.3-0.6c-0.2-0.2-0.4-0.2-0.5-0.1s-0.1,0.3,0.1,0.8S21,148.4,20.6,148.8z"/>
		<path class="st0" d="M22.3,151.1l-0.3-0.2l1-1.2c0.4-0.4,0.4-0.8,0.1-1s-0.7-0.2-1,0.2l-1,1.1l-0.3-0.2l2.2-2.6l0.4,0.1l-0.9,1
			c0.3-0.1,0.6,0,0.8,0.2c0.4,0.4,0.5,0.8,0,1.4L22.3,151.1z"/>
		<path class="st0" d="M23.2,151.8l-0.3-0.2l1.6-2.1l0.3,0.2L23.2,151.8z M25.4,149.3c-0.1,0.1-0.3,0.1-0.4,0
			c-0.1-0.1-0.1-0.3,0-0.4c0.1-0.1,0.3-0.1,0.4,0C25.5,149,25.5,149.2,25.4,149.3L25.4,149.3z"/>
		<path class="st0" d="M26.4,152.6c-0.6,0.7-1.2,0.9-1.6,0.5c-0.2-0.2-0.4-0.4-0.4-0.7l-0.6,0.8l-0.4-0.1l2.2-2.9l0.3,0.2l-0.2,0.2
			c0.3-0.1,0.6,0,0.9,0.2C26.8,151.3,26.9,151.8,26.4,152.6z M26.1,152.3c0.4-0.5,0.4-1,0.1-1.2c-0.2-0.2-0.5-0.2-0.8-0.1l-0.8,1
			c0,0.3,0.1,0.6,0.3,0.8C25.2,153.1,25.6,152.9,26.1,152.3z"/>
		<path class="st0" d="M31.1,154.4l-2.1,1.8l-0.3-0.2l0.6-1.7c0-0.1,0.1-0.2,0.1-0.4l-0.3,0.2l-1.4,1.2l-0.3-0.2l0.9-2.6l0.3,0.2
			l-0.6,1.7c0,0.1-0.1,0.2-0.1,0.3l0.3-0.2l1.4-1.2l0.3,0.2l-0.6,1.7c0,0.1-0.1,0.2-0.1,0.4l0.3-0.3l1.3-1.2L31.1,154.4z"/>
		<path class="st0" d="M30.5,157.1l-0.3-0.2l1.4-2.2l0.3,0.2L30.5,157.1z M32.4,154.3c-0.1,0.1-0.2,0.2-0.4,0.1c0,0,0,0,0,0
			c-0.1-0.1-0.2-0.2-0.1-0.4c0.1-0.1,0.2-0.2,0.4-0.1c0,0,0,0,0,0C32.5,154.1,32.5,154.2,32.4,154.3z"/>
		<path class="st0" d="M33.4,156.2l-0.5-0.4l-0.9,1.4c-0.1,0.2-0.1,0.3,0,0.4c0.1,0.1,0.2,0.1,0.4,0.1l-0.2,0.3
			c-0.2,0-0.3-0.1-0.5-0.2c-0.3-0.2-0.3-0.4-0.1-0.8l0.9-1.5l-0.3-0.2l0.2-0.3l0.3,0.2l0.4-0.7h0.4l-0.5,0.9l0.5,0.3L33.4,156.2z"/>
		<path class="st0" d="M34.5,159.6l-0.3-0.2l0.8-1.3c0.3-0.5,0.2-0.8-0.1-1s-0.7-0.1-1,0.4l-0.8,1.3l-0.3-0.2l1.8-3H35l-0.7,1.2
			c0.3-0.1,0.6-0.1,0.8,0c0.5,0.3,0.6,0.8,0.2,1.4L34.5,159.6z"/>
		<path class="st0" d="M38.5,159.1l-0.6-0.3l-0.8,1.5c-0.1,0.2-0.1,0.3,0.1,0.4c0.1,0.1,0.2,0.1,0.4,0.1l-0.2,0.3
			c-0.2,0-0.3-0.1-0.5-0.1c-0.3-0.2-0.4-0.4-0.2-0.8l0.8-1.6l-0.3-0.1l0.2-0.3l0.3,0.2l0.4-0.7h0.4l-0.5,0.9l0.6,0.3L38.5,159.1z"/>
		<path class="st0" d="M39.8,162.4l-0.3-0.2l0.7-1.4c0.3-0.5,0.2-0.8-0.2-1s-0.7-0.1-1,0.4l-0.7,1.4l-0.3-0.2l1.5-3.1h0.4l-0.6,1.2
			c0.3-0.1,0.6-0.1,0.8,0c0.5,0.2,0.7,0.7,0.3,1.4L39.8,162.4z"/>
		<path class="st0" d="M42.9,162.4c0,0.1-0.1,0.1-0.1,0.2l-1.6-0.7c-0.2,0.5-0.1,1,0.3,1.1c0.2,0.1,0.5,0.1,0.8,0.1l0,0.3
			c-0.3,0.1-0.7,0-1-0.1c-0.4-0.2-0.8-0.8-0.4-1.7c0.3-0.8,1-1,1.5-0.8S43.3,161.7,42.9,162.4z M42.7,162.1c0.2-0.5,0.1-0.9-0.3-1.1
			s-0.7,0-1,0.5L42.7,162.1z"/>
		<path class="st0" d="M47.5,162.4l-1-0.4l-1.2,2.9l-0.4-0.1l1.2-2.9l-1-0.4l0.1-0.3l2.3,0.9L47.5,162.4z"/>
		<path class="st0" d="M48.9,164.9c-0.2,0.7-0.8,1.1-1.5,0.9c0,0-0.1,0-0.1,0c-0.6-0.2-0.9-0.9-0.6-1.5c0-0.1,0-0.1,0.1-0.2
			c0.1-0.6,0.8-1.1,1.4-0.9c0,0,0.1,0,0.1,0c0.6,0.3,0.9,0.9,0.6,1.5C49,164.8,48.9,164.8,48.9,164.9z M48.6,164.8
			c0.2-0.6,0.1-1.1-0.3-1.2s-0.8,0.1-1.1,0.7s-0.1,1.1,0.3,1.2S48.3,165.4,48.6,164.8L48.6,164.8z"/>
		<path class="st0" d="M51,167l-0.3-0.1l0.1-0.3c-0.2,0.2-0.5,0.2-0.8,0.1c-0.5-0.2-0.8-0.6-0.5-1.3l0.5-1.5l0.4,0.1l-0.5,1.4
			c-0.2,0.5-0.1,0.8,0.3,1s0.7,0,0.9-0.6l0.5-1.4l0.4,0.1L51,167z"/>
		<path class="st0" d="M54,165.2l-0.2,0.3c-0.1-0.1-0.2-0.2-0.3-0.2c-0.3-0.1-0.6,0.1-0.8,0.6l-0.5,1.5l-0.4-0.1l0.8-2.5l0.4,0.1
			l-0.1,0.3c0.2-0.2,0.5-0.2,0.7-0.2C53.8,165.1,53.9,165.1,54,165.2z"/>
		<path class="st0" d="M54.1,168l-0.4-0.1l0.8-2.5l0.4,0.1L54.1,168z M55.1,164.8c0,0.1-0.2,0.2-0.3,0.2c-0.1,0-0.2-0.2-0.2-0.3
			c0-0.1,0.2-0.2,0.3-0.2c0,0,0,0,0,0C55.1,164.5,55.2,164.7,55.1,164.8L55.1,164.8z"/>
		<path class="st0" d="M56.6,168c-0.1,0.4-0.6,0.6-1,0.5c0,0-0.1,0-0.1,0c-0.3-0.1-0.6-0.3-0.8-0.6l0.3-0.2c0.1,0.2,0.4,0.4,0.6,0.5
			c0.3,0.1,0.5,0,0.6-0.2s-0.1-0.4-0.5-0.7s-0.6-0.6-0.5-1c0.1-0.4,0.5-0.6,0.9-0.5c0,0,0.1,0,0.1,0c0.3,0.1,0.5,0.3,0.7,0.5
			l-0.3,0.2c-0.1-0.2-0.3-0.3-0.6-0.4c-0.3-0.1-0.5,0-0.5,0.2s0,0.3,0.4,0.6S56.8,167.6,56.6,168z"/>
		<path class="st0" d="M58.8,166.9l-0.6-0.2l-0.4,1.7c0,0.2,0,0.3,0.2,0.4c0.1,0,0.2,0,0.4,0l-0.1,0.3c-0.2,0-0.3,0-0.5,0
			c-0.3-0.1-0.5-0.3-0.3-0.7l0.4-1.7l-0.3-0.1l0.1-0.3l0.3,0.1l0.2-0.8l0.4-0.1l-0.2,1l0.6,0.2L58.8,166.9z"/>
		<path class="st0" d="M63.2,168.4c-0.2,1-0.9,1.7-1.8,1.5s-1.3-1-1.1-2.1s0.9-1.7,1.8-1.5c0.8,0.2,1.3,1.1,1.1,1.9
			C63.3,168.3,63.3,168.4,63.2,168.4z M62.9,168.4c0.2-0.9-0.2-1.5-0.8-1.6s-1.2,0.4-1.3,1.2s0.2,1.5,0.8,1.6S62.7,169.2,62.9,168.4
			z"/>
		<path class="st0" d="M65.5,167.9l-0.2,0.4c-0.1-0.1-0.2-0.2-0.4-0.2c-0.4-0.1-0.6,0.2-0.7,0.7l-0.3,1.5l-0.4-0.1l0.5-2.6l0.4,0.1
			v0.3c0.2-0.2,0.4-0.3,0.7-0.3C65.3,167.8,65.4,167.9,65.5,167.9z"/>
		<path class="st0" d="M67.5,170.6c-0.1,0.8-0.5,1.1-1.5,1l-0.1-0.3c0.9,0.1,1.1-0.1,1.2-0.7v-0.1c-0.2,0.2-0.5,0.3-0.8,0.3
			c-0.5-0.1-0.9-0.5-0.7-1.4s0.7-1.3,1.2-1.2c0.3,0,0.5,0.2,0.7,0.5v-0.3h0.4L67.5,170.6z M67.2,170.2l0.2-1.3
			c-0.1-0.3-0.4-0.4-0.7-0.5c-0.4-0.1-0.7,0.3-0.8,1s0.1,1,0.5,1.1C66.7,170.5,67,170.4,67.2,170.2L67.2,170.2z"/>
		<path class="st0" d="M70.2,171.2h-0.4v-0.3c-0.2,0.2-0.5,0.3-0.9,0.3c-0.4,0-0.8-0.4-0.7-0.8c0-0.1,0-0.1,0-0.1
			c0.1-0.6,0.6-0.8,1.1-0.7c0.2,0,0.4,0.1,0.6,0.2v-0.3c0.1-0.3-0.1-0.5-0.3-0.6c-0.1,0-0.1,0-0.2,0c-0.2,0-0.5,0-0.7,0.1l-0.1-0.3
			c0.3-0.1,0.6-0.1,0.9-0.1c0.6,0.1,0.9,0.3,0.8,0.9L70.2,171.2z M69.9,170.5l0.1-0.5c-0.2-0.1-0.4-0.2-0.7-0.2
			c-0.4,0-0.6,0.1-0.7,0.4c-0.1,0.3,0.1,0.5,0.3,0.6c0,0,0.1,0,0.1,0C69.4,170.9,69.7,170.8,69.9,170.5L69.9,170.5z"/>
		<path class="st0" d="M73,171.5h-0.4l0.1-1.5c0.1-0.6-0.1-0.8-0.5-0.9s-0.7,0.2-0.7,0.8l-0.1,1.5H71l0.2-2.6h0.4v0.3
			c0.2-0.2,0.5-0.3,0.8-0.3c0.6,0,0.9,0.4,0.8,1.1L73,171.5z"/>
		<path class="st0" d="M74.2,171.6h-0.4l0.2-2.6h0.4L74.2,171.6z M74.5,168.2c0,0.1-0.1,0.3-0.3,0.2c-0.1,0-0.3-0.1-0.3-0.3
			c0-0.1,0.1-0.3,0.3-0.3c0,0,0,0,0,0C74.4,167.9,74.5,168.1,74.5,168.2C74.5,168.2,74.5,168.2,74.5,168.2L74.5,168.2z"/>
		<path class="st0" d="M76.7,171c0,0.5-0.5,0.7-0.9,0.7c-0.3,0-0.7-0.1-0.9-0.4l0.2-0.3c0.2,0.2,0.4,0.3,0.7,0.3
			c0.4,0,0.5-0.1,0.6-0.4s-0.1-0.3-0.6-0.6s-0.7-0.4-0.7-0.8s0.4-0.6,0.8-0.6c0.3,0,0.6,0.1,0.8,0.3l-0.2,0.3
			c-0.2-0.2-0.4-0.3-0.6-0.3c-0.3,0-0.4,0.1-0.4,0.3s0.1,0.3,0.6,0.5S76.7,170.5,76.7,171z"/>
		<path class="st0" d="M79.2,171.7h-0.4v-0.3c-0.2,0.2-0.5,0.4-0.8,0.4c-0.4,0-0.8-0.3-0.8-0.7c0,0,0-0.1,0-0.1c0-0.6,0.5-0.8,1-0.8
			c0.2,0,0.5,0.1,0.7,0.2V170c0.1-0.3-0.1-0.5-0.4-0.6c-0.1,0-0.1,0-0.2,0c-0.2,0-0.5,0.1-0.7,0.2l-0.1-0.3c0.3-0.1,0.6-0.2,0.9-0.2
			c0.6,0,0.9,0.2,0.9,0.9L79.2,171.7z M78.9,171.1v-0.5c-0.2-0.1-0.4-0.2-0.7-0.2c-0.4,0-0.6,0.2-0.6,0.5c0,0.3,0.1,0.5,0.4,0.6
			c0,0,0.1,0,0.1,0C78.4,171.5,78.7,171.3,78.9,171.1L78.9,171.1z"/>
		<path class="st0" d="M81.2,169.4h-0.7v1.7c0,0.2,0.1,0.3,0.3,0.3c0.1,0,0.3,0,0.4-0.1v0.3c-0.2,0.1-0.3,0.1-0.5,0.1
			c-0.3,0-0.5-0.2-0.5-0.6v-1.8h-0.3v-0.3h0.3v-0.8l0.4-0.2v1h0.7L81.2,169.4z"/>
		<path class="st0" d="M82.3,168.4c0,0.1-0.1,0.3-0.3,0.3s-0.3-0.1-0.3-0.3s0.1-0.3,0.3-0.3c0,0,0,0,0,0
			C82.2,168.1,82.3,168.2,82.3,168.4C82.3,168.3,82.3,168.3,82.3,168.4z M82.3,171.7h-0.4l-0.1-2.6h0.4L82.3,171.7z"/>
		<path class="st0" d="M85.2,170.3c0,0.9-0.4,1.4-1.1,1.4s-1.1-0.4-1.1-1.3s0.4-1.4,1-1.4S85.2,169.4,85.2,170.3z M84.9,170.3
			c0-0.7-0.3-1-0.8-1s-0.7,0.4-0.7,1.1s0.3,1,0.8,1S84.9,171,84.9,170.3L84.9,170.3z"/>
		<path class="st0" d="M88,171.4h-0.4l-0.1-1.5c0-0.6-0.3-0.8-0.7-0.8s-0.6,0.3-0.6,0.9l0.1,1.5H86l-0.2-2.6h0.4v0.3
			c0.1-0.3,0.4-0.4,0.7-0.4c0.6,0,0.9,0.2,1,1L88,171.4z"/>
		<path class="st0" d="M90.4,170.5c0.1,0.5-0.4,0.8-0.8,0.8c-0.4,0-0.7,0-1-0.2l0.2-0.3c0.2,0.2,0.5,0.2,0.7,0.2
			c0.4,0,0.5-0.2,0.5-0.5s-0.2-0.3-0.7-0.5s-0.8-0.3-0.8-0.7s0.3-0.7,0.7-0.8c0.3,0,0.6,0,0.9,0.2l-0.2,0.3
			c-0.2-0.1-0.4-0.2-0.7-0.2c-0.3,0-0.4,0.2-0.4,0.4s0.2,0.3,0.6,0.4S90.3,170,90.4,170.5z"/>
		<path class="st0" d="M94.3,169.3c0.1,0.9-0.3,1.4-0.9,1.5s-1.2-0.3-1.3-1.2c-0.2-0.6,0.2-1.3,0.8-1.5c0,0,0.1,0,0.1,0
			C93.7,168,94.2,168.4,94.3,169.3z M94,169.4c-0.1-0.7-0.5-1-0.9-0.9s-0.7,0.4-0.6,1.1s0.5,1,0.9,0.9S94.1,170,94,169.4L94,169.4z"
			/>
		<path class="st0" d="M95.7,167.1c-0.1,0-0.2,0-0.3,0c-0.2,0-0.2,0.1-0.2,0.3l0.1,0.4l0.5-0.1v0.3l-0.5,0.1l0.4,2.3l-0.4,0.1
			l-0.4-2.3l-0.3,0.1v-0.3l0.3-0.1l-0.1-0.4c-0.1-0.3,0.1-0.6,0.3-0.7c0,0,0.1,0,0.2,0c0.1,0,0.2,0,0.3,0L95.7,167.1z"/>
		<path class="st0" d="M100.4,168c0.2,0.7-0.1,1.4-0.8,1.6c-0.1,0-0.2,0-0.2,0.1c-0.8,0.2-1.6-0.4-1.8-1.5c-0.3-0.8,0.1-1.7,0.9-2
			c0,0,0,0,0.1,0c0.4-0.1,0.9,0,1.2,0.3l-0.2,0.3c-0.2-0.2-0.6-0.3-0.9-0.3c-0.6,0.1-0.9,0.8-0.7,1.6s0.7,1.3,1.3,1.2
			s0.8-0.6,0.7-1.2l0,0l-0.6,0.1l-0.1-0.4l1-0.2L100.4,168z"/>
		<path class="st0" d="M102.1,166.3v0.4c-0.1,0-0.3,0-0.4,0c-0.3,0.1-0.5,0.4-0.4,0.9l0.4,1.5l-0.4,0.1l-0.6-2.5l0.4-0.1l0.1,0.3
			c0.1-0.3,0.3-0.5,0.5-0.5C101.9,166.3,102,166.3,102.1,166.3z"/>
		<path class="st0" d="M104.8,166.9c0,0.1,0,0.1,0,0.2l-1.7,0.5c0.2,0.5,0.5,0.8,0.9,0.7c0.3-0.1,0.5-0.2,0.6-0.4l0.2,0.2
			c-0.2,0.3-0.5,0.5-0.8,0.5c-0.5,0.1-1.1-0.1-1.4-1c-0.2-0.8,0.1-1.4,0.7-1.6S104.6,166.2,104.8,166.9z M104.4,166.9
			c-0.2-0.5-0.5-0.8-0.9-0.6s-0.6,0.4-0.4,1L104.4,166.9z"/>
		<path class="st0" d="M107.6,167.5l-0.4,0.1l-0.1-0.3c-0.1,0.3-0.4,0.5-0.7,0.6c-0.4,0.1-0.8-0.1-1-0.5c0,0,0,0,0-0.1
			c-0.2-0.6,0.2-1,0.7-1.1c0.2-0.1,0.4-0.1,0.7-0.1l-0.1-0.3c0-0.3-0.3-0.5-0.6-0.4c-0.1,0-0.1,0-0.2,0c-0.2,0.1-0.5,0.2-0.6,0.4
			l-0.2-0.2c0.2-0.2,0.5-0.4,0.8-0.5c0.4-0.2,0.9-0.1,1.1,0.3c0,0.1,0.1,0.1,0.1,0.2L107.6,167.5z M107,167l-0.2-0.5
			c-0.2,0-0.5,0-0.7,0.1c-0.4,0.1-0.5,0.4-0.4,0.7c0,0.3,0.3,0.5,0.6,0.4c0,0,0.1,0,0.1,0C106.7,167.5,107,167.3,107,167L107,167z"
			/>
		<path class="st0" d="M108.7,164.7l-0.6,0.2l0.5,1.6c0.1,0.2,0.2,0.3,0.3,0.2c0.1,0,0.2-0.1,0.3-0.2l0.1,0.3
			c-0.1,0.1-0.3,0.2-0.4,0.2c-0.3,0.1-0.5,0-0.7-0.4l-0.6-1.7l-0.3,0.1l-0.1-0.3l0.3-0.1l-0.3-0.8l0.3-0.3l0.3,1l0.6-0.2
			L108.7,164.7z"/>
		<path class="st0" d="M113.3,164.4c0.2,0.5,0,1.1-0.5,1.3c-0.1,0-0.1,0-0.2,0.1l-1.2,0.4l-1.2-3.3l1.2-0.4c0.4-0.2,0.9-0.1,1.1,0.3
			c0,0,0.1,0.1,0.1,0.2c0.1,0.3,0,0.6-0.2,0.9C112.7,163.7,113.1,164,113.3,164.4z M112.2,163.1c-0.1-0.3-0.4-0.4-0.6-0.3
			c0,0-0.1,0-0.1,0l-0.8,0.3l0.4,1l0.8-0.3C112.1,163.7,112.3,163.5,112.2,163.1C112.2,163.2,112.2,163.1,112.2,163.1L112.2,163.1z
			 M112.9,164.5c-0.1-0.4-0.5-0.6-0.8-0.5c-0.1,0-0.1,0-0.2,0.1l-0.8,0.3l0.5,1.3l0.8-0.3C113,165.2,113.1,164.9,112.9,164.5
			L112.9,164.5z"/>
		<path class="st0" d="M114.6,162.1l0.1,0.4c-0.1,0-0.3,0-0.4,0c-0.3,0.1-0.4,0.5-0.2,1l0.6,1.4l-0.3,0.1l-1-2.4l0.3-0.1l0.1,0.3
			c0-0.3,0.2-0.5,0.5-0.6C114.3,162.1,114.5,162.1,114.6,162.1z"/>
		<path class="st0" d="M115.2,161c0.1,0.1,0,0.3-0.1,0.4c-0.1,0.1-0.3,0-0.4-0.1c-0.1-0.1,0-0.3,0.2-0.4
			C115,160.8,115.2,160.9,115.2,161z M116.5,164.1l-0.3,0.2l-1-2.4l0.3-0.1L116.5,164.1z"/>
		<path class="st0" d="M117.4,161.2l-0.6,0.3l0.7,1.6c0.1,0.2,0.2,0.3,0.4,0.2c0.1-0.1,0.2-0.1,0.3-0.2l0.1,0.3
			c-0.1,0.1-0.2,0.2-0.4,0.3c-0.3,0.1-0.5,0.1-0.7-0.3l-0.7-1.6l-0.3,0.1l-0.1-0.3l0.3-0.1l-0.3-0.7l0.3-0.4l0.4,0.9l0.6-0.3
			L117.4,161.2z"/>
		<path class="st0" d="M120.6,162.2l-0.3,0.2l-0.1-0.3c-0.1,0.3-0.3,0.6-0.6,0.7c-0.4,0.2-0.8,0.1-1.1-0.3c0,0,0-0.1-0.1-0.1
			c-0.2-0.4,0-1,0.4-1.2c0,0,0.1,0,0.1,0c0.2-0.1,0.4-0.2,0.7-0.1l-0.1-0.3c-0.1-0.3-0.4-0.4-0.7-0.3c0,0-0.1,0-0.1,0.1
			c-0.2,0.1-0.4,0.3-0.6,0.5l-0.3-0.2c0.2-0.2,0.4-0.4,0.7-0.6c0.3-0.3,0.8-0.2,1.1,0.2c0,0.1,0.1,0.1,0.1,0.2L120.6,162.2z
			 M120,161.8l-0.2-0.5c-0.2,0-0.5,0-0.7,0.2c-0.3,0.1-0.4,0.4-0.4,0.6c0,0,0,0.1,0,0.1c0.1,0.3,0.4,0.4,0.6,0.3c0,0,0.1,0,0.1,0
			C119.8,162.3,120,162.1,120,161.8L120,161.8z"/>
		<path class="st0" d="M120.2,158.6c0.1,0.1,0,0.3-0.1,0.4c-0.1,0.1-0.3,0-0.4-0.1c0,0,0,0,0,0c-0.1-0.1,0-0.3,0.1-0.4c0,0,0,0,0,0
			C120,158.5,120.2,158.5,120.2,158.6z M121.7,161.6l-0.3,0.2l-1.2-2.3l0.3-0.2L121.7,161.6z"/>
		<path class="st0" d="M124.2,160.3l-0.3,0.2l-0.7-1.4c-0.3-0.5-0.6-0.6-0.9-0.4s-0.4,0.5-0.2,1l0.7,1.4l-0.3,0.2l-1.2-2.2l0.3-0.2
			l0.2,0.3c0-0.3,0.2-0.5,0.5-0.7c0.5-0.3,1-0.2,1.3,0.5L124.2,160.3z"/>
		<path class="st0" d="M128.3,157.9l-0.4,0.2l-0.4-0.2c-0.1,0.4-0.3,0.7-0.6,0.9c-0.4,0.3-1,0.3-1.3-0.1c0,0-0.1-0.1-0.1-0.2
			c-0.2-0.4-0.2-0.9,0.1-1.3l-0.2-0.1c-0.3-0.1-0.5-0.2-0.6-0.4c-0.2-0.4-0.1-0.8,0.3-1.1c0,0,0.1,0,0.1,0c0.3-0.2,0.7-0.3,1-0.2
			v0.4c-0.3,0-0.5,0-0.8,0.1c-0.3,0.2-0.3,0.4-0.2,0.6c0.1,0.2,0.3,0.3,0.4,0.3l1.6,0.6c0-0.2-0.1-0.4-0.1-0.6l0.3-0.1
			c0.1,0.3,0.1,0.6,0.1,0.9L128.3,157.9z M127.2,157.9l-1.2-0.5c-0.3,0.3-0.3,0.7-0.1,1c0.2,0.3,0.5,0.4,0.8,0.2c0,0,0,0,0.1,0
			C127,158.4,127.1,158.2,127.2,157.9L127.2,157.9z"/>
		<path class="st0" d="M129.9,156.9l-2-2.9l0.3-0.2l2.6,1.2c0.2,0.1,0.3,0.1,0.5,0.2l-1.6-2.4l0.3-0.2l2,2.9l-0.3,0.2l-2.6-1.1
			l-0.4-0.2l1.6,2.4L129.9,156.9z"/>
		<path class="st0" d="M133.7,152.6c0.5,0.5,0.5,1.2,0,1.7c0,0-0.1,0.1-0.1,0.1c-0.7,0.3-1.5,0-1.9-0.7c-0.3-0.5-0.2-1.2,0.3-1.6
			c0.5-0.4,1.2-0.2,1.6,0.3C133.6,152.5,133.7,152.5,133.7,152.6z M133.4,152.8c-0.4-0.6-0.9-0.6-1.2-0.4s-0.4,0.7,0,1.3
			s0.9,0.7,1.2,0.4S133.8,153.4,133.4,152.8z"/>
		<path class="st0" d="M134.6,150.3l0.1,0.4c-0.1,0-0.3,0.1-0.4,0.2c-0.3,0.2-0.3,0.6,0,1l0.9,1.2l-0.3,0.2l-1.6-2.1l0.3-0.2
			l0.2,0.3c0-0.3,0.1-0.5,0.3-0.7C134.3,150.4,134.4,150.3,134.6,150.3z"/>
		<path class="st0" d="M136.1,149.5l-0.5,0.4l1.1,1.3c0.1,0.2,0.2,0.2,0.4,0.1c0.1-0.1,0.2-0.2,0.2-0.3l0.2,0.3
			c-0.1,0.1-0.2,0.3-0.3,0.4c-0.2,0.2-0.5,0.2-0.8-0.1l-1.1-1.4l-0.3,0.2l-0.2-0.2l0.3-0.2l-0.5-0.6l0.2-0.4l0.6,0.8l0.5-0.4
			L136.1,149.5z"/>
		<path class="st0" d="M139.6,149.5l-0.3,0.2l-1-1.2c-0.4-0.4-0.7-0.5-1-0.2s-0.3,0.6,0,1l1,1.2l-0.3,0.2l-2.2-2.6l0.1-0.4l0.9,1
			c0-0.3,0.1-0.6,0.3-0.8c0.4-0.4,0.9-0.3,1.4,0.2L139.6,149.5z"/>
		<path class="st0" d="M140.8,146.6l0.1,0.2l-1.3,1.2c0.4,0.4,0.8,0.5,1.1,0.2c0.2-0.2,0.3-0.4,0.4-0.7l0.3,0.1
			c-0.1,0.3-0.2,0.6-0.5,0.9c-0.4,0.3-1,0.5-1.7-0.3c-0.5-0.4-0.6-1.2-0.2-1.7c0,0,0,0,0.1-0.1c0.5-0.4,1.2-0.3,1.6,0.1
			C140.8,146.5,140.8,146.5,140.8,146.6z M140.5,146.7c-0.4-0.4-0.8-0.5-1.1-0.2s-0.3,0.6,0,1.1L140.5,146.7z"/>
		<path class="st0" d="M141.5,144.2l0.2,0.3c-0.1,0-0.3,0.1-0.4,0.2c-0.3,0.2-0.2,0.6,0.1,1l1.1,1.1l-0.3,0.3l-1.8-1.9l0.3-0.3
			l0.2,0.2c-0.1-0.3,0-0.5,0.2-0.7C141.3,144.4,141.4,144.3,141.5,144.2z"/>
		<path class="st0" d="M145.2,144.3l-0.3,0.3l-1.1-1.1c-0.4-0.4-0.7-0.4-1-0.1s-0.3,0.6,0.1,1l1.1,1.1l-0.3,0.3l-1.9-1.9l0.3-0.3
			l0.2,0.2c-0.1-0.3,0-0.6,0.2-0.8c0.4-0.4,0.9-0.4,1.4,0.1L145.2,144.3z"/>
		<path class="st0" d="M146.9,142.4l-0.3,0.3l-2.6-2.4l0.3-0.3L146.9,142.4z"/>
		<path class="st0" d="M146.5,138.9l0.2,0.3c-0.1,0-0.2,0.1-0.3,0.2c-0.2,0.3-0.2,0.6,0.2,0.9l1.1,1l-0.2,0.3l-2-1.8l0.2-0.3
			l0.2,0.2c-0.1-0.3,0-0.5,0.1-0.7C146.3,139.1,146.4,139,146.5,138.9z"/>
		<path class="st0" d="M149,137.9c0.1,0,0.1,0.1,0.1,0.1l-1.1,1.3c0.4,0.3,0.9,0.4,1.2,0c0.2-0.2,0.3-0.4,0.3-0.7h0.3
			c0,0.3-0.2,0.7-0.4,0.9c-0.3,0.4-1,0.6-1.7-0.1c-0.6-0.3-0.7-1-0.4-1.6c0,0,0-0.1,0.1-0.1C147.8,137.3,148.4,137.4,149,137.9z
			 M148.7,138.1c-0.4-0.3-0.8-0.4-1.1,0s-0.2,0.7,0.2,1.1L148.7,138.1z"/>
		<path class="st0" d="M150.8,137.9l-0.2,0.3l-2.7-2.2l0.1-0.4L150.8,137.9z"/>
		<path class="st0" d="M152.5,135.8l-0.2,0.3l-0.2-0.2c0.1,0.3,0,0.6-0.2,0.9c-0.2,0.4-0.7,0.5-1,0.2c0,0-0.1-0.1-0.1-0.1
			c-0.4-0.3-0.4-0.9-0.1-1.2c0,0,0.1-0.1,0.1-0.1c0.1-0.2,0.3-0.3,0.5-0.4l-0.2-0.2c-0.2-0.2-0.5-0.2-0.7,0c0,0-0.1,0.1-0.1,0.1
			c-0.2,0.2-0.3,0.4-0.3,0.7l-0.3-0.1c0.1-0.3,0.2-0.6,0.4-0.8c0.2-0.4,0.7-0.5,1.1-0.3c0.1,0,0.1,0.1,0.2,0.1L152.5,135.8z
			 M151.7,135.7l-0.4-0.3c-0.2,0.1-0.4,0.2-0.5,0.4c-0.2,0.3-0.2,0.6,0,0.8c0.2,0.2,0.5,0.2,0.7,0c0,0,0.1-0.1,0.1-0.1
			C151.7,136.3,151.8,136,151.7,135.7z"/>
		<path class="st0" d="M154.2,133.5l-0.2,0.3l-1.2-0.9c-0.4-0.3-0.8-0.3-1,0s-0.2,0.7,0.3,1l1.2,0.9l-0.2,0.3l-2.1-1.5l0.2-0.3
			l0.2,0.2c-0.1-0.3-0.1-0.6,0.1-0.8c0.3-0.4,0.8-0.6,1.4-0.1L154.2,133.5z"/>
		<path class="st0" d="M155.7,131.2l-0.2,0.3l-0.3-0.2c0.1,0.3,0,0.6-0.1,0.9c-0.3,0.4-0.9,0.6-1.6,0s-0.9-1.2-0.6-1.6
			c0.2-0.2,0.4-0.4,0.7-0.4l-0.9-0.6v-0.4L155.7,131.2z M155,131.2l-1.1-0.7c-0.3,0-0.6,0.1-0.7,0.4c-0.2,0.4-0.1,0.8,0.5,1.1
			s1,0.4,1.2,0C155.1,131.7,155.1,131.4,155,131.2L155,131.2z"/>
		<path class="st0" d="M157.4,91.9l0.1-0.6l-1.7-0.2l0.1-0.4l1.7,0.2l0.1-0.6h0.4l-0.2,1.6L157.4,91.9z"/>
		<path class="st0" d="M155.4,94v-0.4l0.8,0.1l0.5,0.1l-0.3-0.2l-0.9-0.6l1-0.3l0.4-0.1l-0.5-0.1l-0.8-0.1l0.1-0.4l2.1,0.3l-0.1,0.4
			l-1,0.3l-0.4,0.1l0.3,0.2l0.9,0.5v0.4L155.4,94z"/>
	</g>
</g>
</svg>
