<svg xmlns="http://www.w3.org/2000/svg" width="28" height="36" viewBox="0 0 28 36">
  <path fill="#FFF" fill-rule="evenodd" d="M8.77054455,3.42448607 L20.0272277,3.42448607 C19.9811879,2.44159927 20.0042075,1.76294952 20.0962871,1.38851645 C20.1883668,1.01408338 20.4876212,0.663057649 20.9940594,0.335428716 C21.0400992,0.288624582 21.0631188,0.241821151 21.0631188,0.195017018 C21.5235172,-0.0390036491 22.0299477,-0.0624053647 22.5824257,0.124811169 C23.2730233,0.405635969 23.6988853,0.756661703 23.8600248,1.1778989 C24.0211642,1.5991361 24.0787131,2.347991 24.0326733,3.42448607 L25.5174505,3.42448607 C25.6325501,3.42448607 25.8167067,3.43618693 26.0699257,3.459589 C26.3231448,3.48299106 26.5073014,3.51809364 26.622401,3.56489777 C26.7375006,3.6117019 26.875618,3.69360791 27.0367574,3.81061824 C27.1978968,3.92762857 27.3245045,4.07973973 27.4165842,4.26695626 C27.462624,4.26695626 27.5316827,4.31375969 27.6237624,4.40736796 C27.8079217,4.68819276 27.9,5.48385109 27.9,6.79436682 L27.9,34.3150596 L27.8309406,34.3150596 L27.8309406,34.5256772 L27.7618812,34.5256772 L27.7618812,34.7362947 L27.6928218,34.7362947 L27.6928218,34.8767064 L27.6237624,34.8767064 L27.6237624,35.0171181 L27.554703,35.0171181 L27.4856436,35.087324 L27.4856436,35.2277357 C27.3935639,35.2745398 27.3014856,35.3447449 27.2094059,35.4383532 L27.2094059,35.5787649 L27.0022277,35.5787649 C27.0022277,35.625569 26.9792082,35.6723725 26.9331683,35.7191766 C26.7950488,35.7191766 26.7029705,35.7425783 26.6569307,35.7893825 L26.6569307,35.8595883 L26.5188119,35.8595883 L26.5188119,35.9297942 L26.3116337,35.9297942 L26.3116337,36 L1.58836634,36 L1.58836634,35.9297942 L1.38118812,35.9297942 L1.38118812,35.8595883 L1.24306931,35.8595883 L1.24306931,35.7893825 L1.1049505,35.7893825 L1.1049505,35.7191766 L0.966831683,35.7191766 L0.897772277,35.5787649 L0.690594059,35.5787649 C0.690594059,35.5319608 0.667574488,35.4734565 0.621534653,35.4032503 C0.575494819,35.3330441 0.529455676,35.2745398 0.483415842,35.2277357 L0.414356436,35.2277357 L0.414356436,35.087324 L0.34529703,35.0171181 L0.276237624,35.0171181 L0.276237624,34.8767064 L0.207178218,34.7362947 L0.138118812,34.7362947 L0.138118812,34.5256772 L0.0690594059,34.5256772 L0.0690594059,34.3150596 L0,34.3150596 L0,5.0392206 L0.0690594059,5.0392206 L0.276237624,4.40736796 C0.368317292,4.31375969 0.437376007,4.26695626 0.483415842,4.26695626 L0.483415842,4.05633871 C0.57549551,4.05633871 0.621534653,4.032937 0.621534653,3.98613286 L0.621534653,3.91592701 L0.759653465,3.91592701 L0.966831683,3.70530947 L1.1049505,3.70530947 L1.1049505,3.63510362 L1.24306931,3.63510362 L1.24306931,3.56489777 L1.45024752,3.56489777 L1.45024752,3.49469192 L1.65742574,3.49469192 L1.65742574,3.42448607 L4.76509901,3.42448607 C4.71905918,2.347991 4.77660811,1.5991361 4.93774752,1.1778989 C5.09888694,0.756661703 5.52474902,0.405635969 6.21534653,0.124811169 C6.76782454,-0.0624053647 7.27425512,-0.0390036491 7.73465347,0.195017018 L7.80371287,0.335428716 L7.94183168,0.335428716 L8.0799505,0.616252112 C8.12599033,0.616252112 8.19504904,0.651354685 8.28712871,0.721560885 C8.37920838,0.791767085 8.4482671,0.850271374 8.49430693,0.897075507 C8.67846627,1.17790031 8.77054455,2.02036207 8.77054455,3.42448607 Z M3.6,15.3 L3.6,19.8 L9,19.8 L9,15.3 L3.6,15.3 Z M11.7,15.3 L11.7,19.8 L17.1,19.8 L17.1,15.3 L11.7,15.3 Z M19.8,15.3 L19.8,19.8 L25.2,19.8 L25.2,15.3 L19.8,15.3 Z M3.6,21.6 L3.6,26.1 L9,26.1 L9,21.6 L3.6,21.6 Z M11.7,21.6 L11.7,26.1 L17.1,26.1 L17.1,21.6 L11.7,21.6 Z M19.8,21.6 L19.8,26.1 L25.2,26.1 L25.2,21.6 L19.8,21.6 Z M3.6,27.9 L3.6,32.4 L9,32.4 L9,27.9 L3.6,27.9 Z M11.7,27.9 L11.7,32.4 L17.1,32.4 L17.1,27.9 L11.7,27.9 Z M19.8,27.9 L19.8,32.4 L25.2,32.4 L25.2,27.9 L19.8,27.9 Z"/>
</svg>
