<svg xmlns="http://www.w3.org/2000/svg" width="18" height="30"><path fill-rule="evenodd" d="M9.171 13.914c-.266.267-.4.61-.4 1.029 0 .419.134.78.4 1.085l7.542 7.656c.648.61.971 1.371.971 2.286 0 .914-.323 1.695-.971 2.342-.647.648-1.41.971-2.285.971-.876 0-1.638-.323-2.286-.97L3.515 19.57 1.23 17.285C.62 16.675.316 15.915.316 15c0-.914.304-1.695.914-2.342l2.285-2.286 8.627-8.741a3.225 3.225 0 0 1 2.286-.914c.876 0 1.638.304 2.285.914.648.647.971 1.419.971 2.314s-.323 1.666-.971 2.314l-7.542 7.655z"/></svg>