<svg xmlns="http://www.w3.org/2000/svg" width="18" height="28"><path fill-rule="evenodd" d="M8.81 15.035c.29-.29.435-.645.435-1.062 0-.418-.145-.753-.436-1.008l-7.568-7.46c-.617-.617-.926-1.37-.926-2.26 0-.889.309-1.642.926-2.259A3.258 3.258 0 0 1 3.555.06c.89 0 1.66.309 2.314.926l8.603 8.495 2.287 2.232c.617.617.926 1.37.926 2.26 0 .89-.309 1.642-.926 2.26l-2.287 2.286-8.603 8.495a3.258 3.258 0 0 1-2.314.926c-.89 0-1.66-.309-2.314-.926-.617-.617-.926-1.37-.926-2.26 0-.89.309-1.642.926-2.26l7.568-7.46z"/></svg>